<svg width="284" height="279" viewBox="0 0 284 279" fill="none" xmlns="http://www.w3.org/2000/svg">
<g clip-path="url(#clip0_17_76)">
<path d="M4.07528 130.464L132.802 4.00356C137.896 -1.00067 146.098 -1.00067 151.192 4.00356L279.919 130.464C285.013 135.468 285.013 143.526 279.919 148.53L151.192 274.991C146.098 279.995 137.896 279.995 132.802 274.991L4.07529 148.53C-1.01862 143.526 -1.01863 135.468 4.07528 130.464Z" fill="white" stroke="black" stroke-width="1.5"/>
<path d="M6.37102 132.725L135.098 6.26472C138.918 2.51155 145.07 2.51155 148.89 6.26472L277.617 132.725C281.437 136.478 281.437 142.522 277.617 146.275L148.89 272.735C145.07 276.488 138.918 276.488 135.098 272.735L6.37102 146.275C2.55059 142.522 2.55059 136.478 6.37102 132.725Z" fill="black"/>
<path d="M10.1973 136.494L138.924 10.0333C140.622 8.36526 143.356 8.36526 145.054 10.0333L273.781 136.494C275.479 138.162 275.479 140.848 273.781 142.516L145.054 268.976C143.356 270.645 140.622 270.644 138.924 268.976L10.1973 142.516C8.49928 140.848 8.49928 138.162 10.1973 136.494Z" fill="white"/>
<path d="M100.742 109.627C100.742 113.907 100.067 117.667 98.7174 120.908C97.3679 124.149 95.4321 126.702 92.91 128.566C92.0689 129.329 91.0843 129.901 89.9562 130.281C88.8282 130.662 87.689 130.895 86.5386 130.981H84.0172H70.4785V88.3992H84.8131C85.9202 88.3992 86.8829 88.4312 87.7011 88.4952C88.5193 88.5592 89.2602 88.6759 89.9238 88.8453C90.5874 89.0147 91.1845 89.2477 91.7152 89.5444C92.2457 89.8412 92.8209 90.201 93.4407 90.6238C95.7859 92.5736 97.589 95.169 98.8501 98.4098C100.111 101.651 100.742 105.39 100.742 109.627ZM93.5743 109.627C93.5743 106.746 93.2533 104.183 92.6113 101.937C91.9693 99.6909 91.0954 98.0171 89.9897 96.9155C89.4145 96.4074 88.7509 95.9839 87.9988 95.6451C87.2468 95.3064 86.4063 95.137 85.4774 95.137H77.5142V124.117H84.5478C85.6981 124.117 86.6605 123.99 87.4348 123.736C88.2091 123.482 88.9061 123.058 89.5259 122.464C90.8531 121.193 91.8596 119.446 92.5455 117.221C93.2314 114.996 93.5743 112.465 93.5743 109.627ZM110.4 130.981V88.3992H136.615V95.137H117.436V105.56H130.377V112.424H117.436V124.117H138.008V130.981H110.4ZM171.741 130.981L167.36 119.033H153.491L149.111 130.981H141.611L156.942 88.3992H163.909L179.24 130.981H171.741ZM160.525 100.22L155.946 112.17H164.839L160.525 100.22ZM216.229 109.627C216.229 113.907 215.554 117.667 214.205 120.908C212.855 124.149 210.92 126.702 208.397 128.566C207.556 129.329 206.572 129.901 205.444 130.281C204.316 130.662 203.176 130.895 202.026 130.981H199.505H185.966V88.3992H200.301C201.408 88.3992 202.37 88.4312 203.189 88.4952C204.007 88.5592 204.748 88.6759 205.411 88.8453C206.075 89.0147 206.672 89.2477 207.203 89.5444C207.733 89.8412 208.308 90.201 208.928 90.6238C211.273 92.5736 213.076 95.169 214.338 98.4098C215.599 101.651 216.229 105.39 216.229 109.627ZM209.062 109.627C209.062 106.746 208.741 104.183 208.099 101.937C207.457 99.6909 206.583 98.0171 205.477 96.9155C204.902 96.4074 204.238 95.9839 203.486 95.6451C202.734 95.3064 201.894 95.137 200.965 95.137H193.002V124.117H200.035C201.186 124.117 202.148 123.99 202.922 123.736C203.697 123.482 204.394 123.058 205.013 122.464C206.341 121.193 207.347 119.446 208.033 117.221C208.719 114.996 209.062 112.465 209.062 109.627Z" fill="black"/>
<path d="M93.2343 199.111V156.53H118.641V163.267H100.053V173.69H112.595V180.554H100.053V192.247H119.991V199.111H93.2343ZM150.56 199.111L134.096 170.257V199.111H127.277V156.53H134.096L149.789 183.731V156.53H156.607V199.111H150.56ZM196.178 177.757C196.178 182.037 195.524 185.797 194.216 189.038C192.908 192.279 191.032 194.832 188.587 196.696C187.772 197.459 186.818 198.031 185.725 198.412C184.631 198.793 183.527 199.026 182.412 199.111H179.969H166.847V156.53H180.74C181.813 156.53 182.746 156.562 183.539 156.626C184.332 156.69 185.05 156.806 185.693 156.976C186.336 157.145 186.915 157.378 187.429 157.675C187.944 157.972 188.501 158.331 189.102 158.754C191.375 160.704 193.122 163.299 194.344 166.54C195.567 169.781 196.178 173.52 196.178 177.757ZM189.231 177.757C189.231 174.876 188.92 172.313 188.298 170.067C187.676 167.821 186.829 166.147 185.757 165.046C185.2 164.538 184.556 164.114 183.828 163.775C183.099 163.437 182.284 163.267 181.384 163.267H173.666V192.247H180.483C181.598 192.247 182.531 192.12 183.281 191.866C184.031 191.612 184.707 191.188 185.308 190.595C186.594 189.324 187.569 187.576 188.234 185.351C188.899 183.127 189.231 180.595 189.231 177.757Z" fill="black"/>
</g>
<defs>
<clipPath id="clip0_17_76">
<rect width="284" height="279" fill="white"/>
</clipPath>
</defs>
</svg>
