<svg width="442" height="161" viewBox="0 0 442 161" fill="none" xmlns="http://www.w3.org/2000/svg">
<path fill-rule="evenodd" clip-rule="evenodd" d="M382.08 3.85862C384.377 3.16162 383.272 5.86562 383.519 7.21862C381.959 7.18162 382.499 5.04262 382.079 3.85862H382.08Z" fill="black"/>
<path fill-rule="evenodd" clip-rule="evenodd" d="M385.92 4.33861C386.818 5.19261 387.478 7.59461 385.44 7.69861C385.44 6.42361 385.26 4.95761 385.92 4.33861Z" fill="black"/>
<path fill-rule="evenodd" clip-rule="evenodd" d="M389.28 6.25862C390.221 6.02662 390.826 8.45962 389.76 8.65862C388.03 9.11762 388.91 6.58662 389.28 6.25862Z" fill="black"/>
<path fill-rule="evenodd" clip-rule="evenodd" d="M400.32 7.21861C401.576 7.72361 401.89 9.16861 401.76 11.0586C400.899 10.9976 400.747 11.6466 399.84 11.5386C400.94 9.97861 399.21 8.56761 400.32 7.21861Z" fill="black"/>
<path fill-rule="evenodd" clip-rule="evenodd" d="M397.44 8.17862C398.667 8.23262 398.393 9.78562 398.4 11.0586C396.11 10.9946 397.76 9.96962 397.44 8.17862Z" fill="black"/>
<path fill-rule="evenodd" clip-rule="evenodd" d="M382.56 8.65861C384.328 8.21661 383.433 11.1906 383.04 11.5386C381.33 11.1306 382.98 10.3556 382.56 8.65861Z" fill="black"/>
<path fill-rule="evenodd" clip-rule="evenodd" d="M385.44 9.13861H386.88C386.943 10.3216 386.952 11.4506 386.4 12.0186C385.56 11.5766 385.34 10.5176 385.44 9.13861Z" fill="black"/>
<path fill-rule="evenodd" clip-rule="evenodd" d="M404.16 9.13861C406.231 12.5076 404.601 19.5776 405.121 24.4986C403.121 20.3426 404.391 12.5766 404.161 9.13861H404.16Z" fill="black"/>
<path fill-rule="evenodd" clip-rule="evenodd" d="M360 9.61861C361.946 9.43261 360.528 12.6096 360.96 13.9386C359.01 14.1246 360.43 10.9466 360 9.61861Z" fill="black"/>
<path fill-rule="evenodd" clip-rule="evenodd" d="M356.64 10.5786C358.02 11.1656 358.609 14.0836 356.64 14.4186V10.5786Z" fill="black"/>
<path fill-rule="evenodd" clip-rule="evenodd" d="M362.4 10.5786C363.856 10.5626 363.596 12.2626 363.84 13.4586C362.12 13.7376 362.38 12.0376 362.4 10.5786Z" fill="black"/>
<path fill-rule="evenodd" clip-rule="evenodd" d="M353.28 14.8986C355.55 14.9816 354.018 17.8266 354.239 19.2186C352.649 19.0496 353.489 16.4516 353.279 14.8986H353.28Z" fill="black"/>
<path fill-rule="evenodd" clip-rule="evenodd" d="M400.32 15.8586C403.134 16.0816 401.867 19.7256 400.32 20.6586V15.8586Z" fill="black"/>
<path fill-rule="evenodd" clip-rule="evenodd" d="M360 16.3386C361.639 16.1636 362.024 19.1146 360 18.7386C359.1 17.8226 360.28 17.8696 360 16.3386Z" fill="black"/>
<path fill-rule="evenodd" clip-rule="evenodd" d="M356.64 16.8186C358.689 17.0096 357.098 20.8406 357.6 22.5786C355.55 22.3876 357.14 18.5556 356.64 16.8186Z" fill="black"/>
<path fill-rule="evenodd" clip-rule="evenodd" d="M350.4 19.2186C352.168 18.7766 351.273 21.7506 350.88 22.0986C349.3 21.8206 350.19 20.2856 350.4 19.2186Z" fill="black"/>
<path fill-rule="evenodd" clip-rule="evenodd" d="M353.28 20.6586C354.747 21.0006 355.23 24.6536 353.28 24.4986V20.6586Z" fill="black"/>
<path fill-rule="evenodd" clip-rule="evenodd" d="M399.36 26.8986C401.131 27.5276 401.641 29.4176 402.24 31.2186C400.58 30.4726 400 28.6576 399.36 26.8986Z" fill="black"/>
<path fill-rule="evenodd" clip-rule="evenodd" d="M396.96 27.3776C398.34 28.3986 399.66 29.4776 399.84 31.6976C398.58 30.5616 397.18 29.5566 396.96 27.3776Z" fill="black"/>
<path fill-rule="evenodd" clip-rule="evenodd" d="M357.12 35.0586C357.893 39.7046 355.906 42.4686 357.599 47.0586C354.349 44.8316 356.449 38.7796 357.119 35.0586H357.12Z" fill="white"/>
<path fill-rule="evenodd" clip-rule="evenodd" d="M342.24 40.3386C344.196 41.1166 343.57 43.3856 343.2 44.6586C341.61 44.4896 342.45 41.8916 342.24 40.3386Z" fill="black"/>
<path fill-rule="evenodd" clip-rule="evenodd" d="M345.6 40.8186H346.56V44.6586H345.6V40.8186Z" fill="black"/>
<path fill-rule="evenodd" clip-rule="evenodd" d="M358.56 42.7386C360.383 43.1556 358.973 46.8056 360 48.0186C358.49 47.2886 359.02 44.5196 358.56 42.7386Z" fill="white"/>
<path fill-rule="evenodd" clip-rule="evenodd" d="M431.04 43.2186C431.467 43.4306 431.898 43.6396 432 44.1786C432.935 53.1466 432.479 64.5106 432.479 75.3786C432.479 85.9046 433.963 97.3646 430.559 105.139C430.739 82.9756 429.888 67.8086 431.039 44.6596V43.2166L431.04 43.2186Z" fill="white"/>
<path fill-rule="evenodd" clip-rule="evenodd" d="M338.4 44.6586C340.9 45.3316 339.351 49.5856 339.36 51.3786C337.47 50.7036 338.79 46.8266 338.4 44.6586Z" fill="black"/>
<path fill-rule="evenodd" clip-rule="evenodd" d="M342.72 46.0986C343.77 46.1696 343.75 47.3076 343.68 48.4986C341.75 48.5676 342.41 47.2676 342.72 46.0986Z" fill="black"/>
<path fill-rule="evenodd" clip-rule="evenodd" d="M335.52 47.0586C337.433 47.9886 336.12 51.0506 336 52.3386C334.12 51.2406 335.79 49.2496 335.52 47.0586Z" fill="black"/>
<path fill-rule="evenodd" clip-rule="evenodd" d="M433.44 50.4176C436.091 57.3686 435.693 73.6836 435.84 84.4976C435.899 88.7936 435.393 93.1106 433.44 95.5376C434.07 81.0166 433.68 66.2296 433.44 50.4176Z" fill="white"/>
<path fill-rule="evenodd" clip-rule="evenodd" d="M342.24 50.8976C343.667 50.3266 344.302 52.9206 343.2 53.2976C341.59 53.7916 342.45 51.8056 342.24 50.8976Z" fill="black"/>
<path fill-rule="evenodd" clip-rule="evenodd" d="M331.68 53.7786C333.525 53.6596 332.597 57.9016 332.16 58.5786C331.06 57.9126 331.98 55.2376 331.68 53.7786Z" fill="black"/>
<path fill-rule="evenodd" clip-rule="evenodd" d="M146.88 54.7386C147.655 54.6036 147.706 55.1926 148.32 55.2186C147.313 63.0036 148.784 68.9106 148.32 77.7786C145.51 72.4246 147.47 62.3116 146.88 54.7386Z" fill="white"/>
<path fill-rule="evenodd" clip-rule="evenodd" d="M335.52 55.6986C337.315 55.3076 336.409 58.6576 336 59.0586C335.02 58.1426 335.04 56.9746 335.52 55.6986Z" fill="black"/>
<path fill-rule="evenodd" clip-rule="evenodd" d="M142.08 56.1786V58.0986C140.23 58.4766 140.23 55.7996 142.08 56.1786Z" fill="black"/>
<path fill-rule="evenodd" clip-rule="evenodd" d="M149.28 56.1786C150.822 64.3596 150.906 70.9156 150.24 79.2186C148.71 73.4316 149.08 61.0056 149.28 56.1786Z" fill="white"/>
<path fill-rule="evenodd" clip-rule="evenodd" d="M244.8 57.1386C244.593 58.2116 242.435 57.3326 241.441 57.6186C241.451 56.2236 244.151 56.4836 244.801 57.1386H244.8Z" fill="black"/>
<path fill-rule="evenodd" clip-rule="evenodd" d="M124.8 58.0986C126.608 58.9526 124.997 60.2406 125.76 61.9386C124.922 61.4976 124.7 60.4386 124.8 59.0586C123.84 59.8246 123.383 62.6826 124.32 63.8586C124.768 63.5066 125.047 62.9856 125.28 62.4186C126.389 64.0296 125.448 67.6906 125.76 70.0986C125.069 69.9896 125.593 68.6656 124.8 68.6586C123.4 71.7386 125.229 78.0476 123.84 81.1386C122.478 77.9686 123.821 71.8826 123.36 66.7386C122.943 65.3426 122.641 66.1986 121.44 66.2586C122.22 64.6856 121.332 64.4236 121.44 62.4186C122.07 61.8426 122.195 62.2316 122.88 62.4186V58.5786C124.08 57.9656 124.38 58.8226 124.8 58.0986Z" fill="white"/>
<path fill-rule="evenodd" clip-rule="evenodd" d="M151.68 60.4986C152.981 65.3536 152.275 67.5286 152.64 73.4586C150.61 69.9706 151.94 63.7776 151.68 60.4986Z" fill="white"/>
<path fill-rule="evenodd" clip-rule="evenodd" d="M291.36 60.4986C293.749 61.1346 299.263 60.7176 301.92 60.9786C300.24 62.4576 293.85 62.1386 291.36 60.4986Z" fill="black"/>
<path fill-rule="evenodd" clip-rule="evenodd" d="M204 61.4586C191.331 63.3526 171.316 62.4576 156.96 61.9386C156.872 61.5306 157.148 61.4856 157.44 61.4586C171.44 60.7796 186.33 61.8076 204 61.4586Z" fill="white"/>
<path fill-rule="evenodd" clip-rule="evenodd" d="M323.04 82.5786C273.939 82.8686 225.689 87.7206 173.28 86.8986C169.207 86.8346 156.849 86.0836 156.96 82.0986C157.03 79.5656 162.258 84.5956 164.16 84.9786C170.706 86.2946 178.311 84.7726 185.28 84.4986C215.012 83.3276 253.259 83.0216 280.8 82.0986C294.302 81.6456 308.332 82.0016 322.08 81.1386C324.718 79.0456 325.215 72.2256 323.519 68.6586C313.147 64.4146 300.822 65.8556 288.959 65.7786C259.5 65.5876 210.657 65.6296 164.639 66.2586C169.019 63.7986 173.778 64.5536 179.039 64.3386C200.405 63.4626 226.897 64.3486 253.439 64.3386C267.626 64.3336 287.472 64.2946 307.678 64.3386C313.372 64.3516 321.323 64.0386 323.518 65.7786C327.388 68.8466 326.268 79.1236 323.038 82.5786H323.04Z" fill="white"/>
<path fill-rule="evenodd" clip-rule="evenodd" d="M416.16 65.2986C418.074 64.9856 417.535 67.1236 417.6 68.6586C416.44 68.2206 416.33 66.7296 416.16 65.2986Z" fill="black"/>
<path fill-rule="evenodd" clip-rule="evenodd" d="M418.56 66.7386C420.785 66.4336 419.776 69.3626 420 71.0586C418.25 70.8906 419.26 67.9616 418.56 66.7386Z" fill="black"/>
<path fill-rule="evenodd" clip-rule="evenodd" d="M436.32 66.7386C437.868 71.6996 436.691 77.6556 436.8 83.0586C435.63 79.3906 436.54 70.9176 436.32 66.7386Z" fill="white"/>
<path fill-rule="evenodd" clip-rule="evenodd" d="M145.44 67.2186C146.55 68.9886 145.607 72.8116 145.919 75.3786C144.269 73.5586 144.579 69.0686 145.439 67.2186H145.44Z" fill="white"/>
<path fill-rule="evenodd" clip-rule="evenodd" d="M342.24 67.2186C343.231 68.9736 342.371 70.3016 342.24 72.0186C341.3 71.3526 341.65 67.9446 342.24 67.2186Z" fill="white"/>
<path fill-rule="evenodd" clip-rule="evenodd" d="M5.76004 68.1786C6.80904 68.2486 6.79104 69.3876 6.72004 70.5786C5.72404 70.8626 5.08404 71.5026 4.80004 72.4986C3.64004 71.4606 5.81104 69.6956 5.76004 68.1786Z" fill="white"/>
<path fill-rule="evenodd" clip-rule="evenodd" d="M130.56 68.6586C131.438 70.0386 131.245 74.4476 130.56 75.8586C129.64 73.3786 130.7 71.6996 130.56 68.6586Z" fill="white"/>
<path fill-rule="evenodd" clip-rule="evenodd" d="M417.12 70.0986C418.414 70.0396 418.834 75.0416 417.12 74.8986V70.0986Z" fill="black"/>
<path fill-rule="evenodd" clip-rule="evenodd" d="M117.12 72.0186C80.667 73.9146 49.262 74.0386 11.04 74.4186C41.879 71.8406 86.012 72.4916 117.12 72.0186Z" fill="black"/>
<path fill-rule="evenodd" clip-rule="evenodd" d="M3.83998 72.9786C4.96998 73.6796 3.81698 76.1176 3.35998 76.8186C1.65198 77.0736 3.26698 73.5186 3.83998 72.9786Z" fill="white"/>
<path fill-rule="evenodd" clip-rule="evenodd" d="M132.48 72.9786C133.144 73.2126 133.645 77.3056 132 76.8186C131.79 75.1676 132.19 74.1276 132.48 72.9786Z" fill="white"/>
<path fill-rule="evenodd" clip-rule="evenodd" d="M419.52 73.4586C420.61 73.9696 419.703 76.4766 420 77.7786C417.38 77.8196 419.21 74.6786 419.52 73.4586Z" fill="black"/>
<path fill-rule="evenodd" clip-rule="evenodd" d="M251.52 74.8976C235.324 75.9156 228.851 75.6506 212.641 75.8576C224.001 73.8126 242.731 75.2526 251.521 74.8976H251.52Z" fill="white"/>
<path fill-rule="evenodd" clip-rule="evenodd" d="M261.6 74.4176C260.984 76.3136 252.779 75.3636 252.96 74.8976C254.98 73.8786 258.81 74.6656 261.6 74.4176Z" fill="white"/>
<path fill-rule="evenodd" clip-rule="evenodd" d="M263.04 74.8976C264.176 73.7936 267.348 74.7256 269.28 74.4176C269.03 76.2876 264.08 75.3496 263.04 74.8976Z" fill="white"/>
<path fill-rule="evenodd" clip-rule="evenodd" d="M275.04 75.3776C274.186 74.4816 273.82 75.7676 272.16 75.3776C271.87 74.2806 275.48 73.6336 275.04 75.3776Z" fill="white"/>
<path fill-rule="evenodd" clip-rule="evenodd" d="M341.28 74.4176C343.173 74.1246 341.844 77.0536 342.24 78.2576C341.48 77.4176 341.6 75.7006 341.28 74.4176Z" fill="white"/>
<path fill-rule="evenodd" clip-rule="evenodd" d="M211.68 74.8976C197.354 77.1596 184.174 75.6506 168.96 76.3376C186.12 73.8496 200.33 76.1776 211.68 74.8976Z" fill="white"/>
<path fill-rule="evenodd" clip-rule="evenodd" d="M144.96 75.8576C146.948 75.7896 145.46 79.1976 145.92 80.6576C145.19 79.4656 144.99 77.7446 144.96 75.8576Z" fill="white"/>
<path fill-rule="evenodd" clip-rule="evenodd" d="M184.8 77.7786C184.593 78.8516 182.434 77.9726 181.44 78.2586C181.83 77.2466 183.97 76.9416 184.8 77.7786Z" fill="white"/>
<path fill-rule="evenodd" clip-rule="evenodd" d="M168.96 78.2586C172.005 77.1426 177.117 78.0946 180.96 77.7786C177.92 78.8936 172.8 77.9416 168.96 78.2586Z" fill="white"/>
<path fill-rule="evenodd" clip-rule="evenodd" d="M170.4 80.6586C218.208 78.5866 257.571 78.4396 303.84 77.7786C310.856 77.4716 311.013 78.5136 304.32 78.2586C261.32 79.5296 211.5 80.7076 170.4 80.6586Z" fill="white"/>
<path fill-rule="evenodd" clip-rule="evenodd" d="M328.32 78.2586C329.437 82.2616 328.483 88.3366 328.8 93.1376C325.19 90.5386 326.51 82.1736 328.32 78.2586Z" fill="white"/>
<path fill-rule="evenodd" clip-rule="evenodd" d="M115.68 80.1786C109.806 80.3896 100.426 83.2826 95.04 81.1386C96.619 81.7666 101.561 80.7286 103.68 80.6586C107.43 80.5336 110.86 79.8076 115.68 80.1786Z" fill="white"/>
<path fill-rule="evenodd" clip-rule="evenodd" d="M251.04 81.1386C244.04 82.7066 247.75 80.0166 251.04 81.1386V81.1386Z" fill="white"/>
<path fill-rule="evenodd" clip-rule="evenodd" d="M262.08 80.6586C260.949 82.1066 258.902 81.0366 255.36 81.6186C256.04 79.7326 259.91 81.0506 262.08 80.6586Z" fill="white"/>
<path fill-rule="evenodd" clip-rule="evenodd" d="M265.92 81.1386C266.127 80.0656 268.285 80.9446 269.28 80.6586C268.64 81.9166 267.15 81.5746 265.92 81.1386Z" fill="white"/>
<path fill-rule="evenodd" clip-rule="evenodd" d="M34.08 82.0986H26.88C28.002 81.3016 33.255 80.0506 34.08 82.0986Z" fill="white"/>
<path fill-rule="evenodd" clip-rule="evenodd" d="M37.4399 81.6186C37.6469 80.5456 39.8059 81.4246 40.7999 81.1386C40.1299 81.8726 38.3149 82.5016 37.4399 81.6186Z" fill="white"/>
<path fill-rule="evenodd" clip-rule="evenodd" d="M47.04 81.6186C48.176 80.5146 51.348 81.4466 53.28 81.1386H59.52C56.315 82.2536 51.043 81.3016 47.04 81.6186Z" fill="white"/>
<path fill-rule="evenodd" clip-rule="evenodd" d="M245.28 81.1386C221.874 83.1996 192.323 83.0036 170.88 83.0586C196.3 81.1456 218.73 81.4756 245.28 81.1386Z" fill="white"/>
<path fill-rule="evenodd" clip-rule="evenodd" d="M324.48 83.5386C325.867 83.9336 326.245 87.8266 325.44 88.8186C323.51 88.4056 322.93 84.6466 324.48 83.5386Z" fill="white"/>
<path fill-rule="evenodd" clip-rule="evenodd" d="M117.6 84.4986C103.183 85.9286 88.741 86.5286 76.8 84.9786C93.293 85.0006 103.35 84.8536 117.6 84.4986Z" fill="white"/>
<path fill-rule="evenodd" clip-rule="evenodd" d="M120.48 84.4986C120.973 86.1116 118.987 85.2456 118.08 85.4586C117.59 83.8456 119.57 84.7106 120.48 84.4986Z" fill="white"/>
<path fill-rule="evenodd" clip-rule="evenodd" d="M421.44 84.4986C421.999 84.4206 422.294 84.6046 422.4 84.9786C422.893 92.9156 421.683 99.1886 421.921 107.058C422.087 112.572 424.694 121.016 420.001 123.859C421.601 109.689 417.691 94.6516 421.441 84.4966L421.44 84.4986Z" fill="white"/>
<path fill-rule="evenodd" clip-rule="evenodd" d="M76.32 85.4586C58.131 86.3626 48.186 86.6756 32.64 85.9386C49.793 85.0076 62.807 84.8256 76.32 85.4586Z" fill="white"/>
<path fill-rule="evenodd" clip-rule="evenodd" d="M27.84 85.4586C26.638 87.4566 21.932 85.9496 19.2 86.4186C21.082 84.0606 25.312 86.6326 27.84 85.4586Z" fill="white"/>
<path fill-rule="evenodd" clip-rule="evenodd" d="M31.68 85.4586C32.173 87.0716 30.187 86.2056 29.28 86.4186C28.787 84.8056 30.773 85.6706 31.68 85.4586Z" fill="white"/>
<path fill-rule="evenodd" clip-rule="evenodd" d="M350.4 89.2976C349.206 88.5716 348.206 87.6516 348.001 85.9386C349.621 86.2406 350.211 87.5686 350.401 89.2976H350.4Z" fill="black"/>
<path fill-rule="evenodd" clip-rule="evenodd" d="M136.32 87.8586C137.523 89.0546 137.228 91.7506 137.76 93.6186C135.22 93.7616 136.73 89.8476 136.32 87.8586Z" fill="white"/>
<path fill-rule="evenodd" clip-rule="evenodd" d="M93.6 88.3376C96.703 89.1616 94.56 94.3156 94.56 96.0176C94.56 116.932 96.056 137.85 94.56 156.018C91.542 154.922 93.108 150.389 93.12 147.378C93.193 129.221 92.078 105.293 92.64 89.7776V88.3376C92.96 88.3346 93.28 88.3346 93.6 88.3346V88.3376Z" fill="white"/>
<path fill-rule="evenodd" clip-rule="evenodd" d="M96 88.3376H97.44C99.445 105.907 97.882 132.126 98.88 147.859C99.049 150.532 99.853 154.729 97.92 156.018C95.592 155.976 96.517 152.443 96.48 151.218C95.891 131.812 96.462 108.223 96.48 89.7786C95.917 89.6976 96.075 88.9006 96 88.3346V88.3376Z" fill="white"/>
<path fill-rule="evenodd" clip-rule="evenodd" d="M99.36 88.3376H100.32C102.376 90.6566 101.255 94.4836 101.28 97.4576C101.432 115.131 102.18 133.517 101.28 156.018C99.519 154.139 99.797 151.569 99.84 147.859C100.059 129.168 99.563 107.357 99.36 89.7786V88.3356V88.3376Z" fill="white"/>
<path fill-rule="evenodd" clip-rule="evenodd" d="M105.6 88.8186C107.37 87.7086 111.193 88.6506 113.76 88.3386C111.99 89.4486 108.17 88.5046 105.6 88.8186Z" fill="white"/>
<path fill-rule="evenodd" clip-rule="evenodd" d="M59.52 88.8186C60.295 88.6826 60.346 89.2716 60.96 89.2976C61.027 92.9556 60.367 93.3966 60.48 97.4576C59.008 95.9386 58.616 91.1546 59.52 88.8186Z" fill="white"/>
<path fill-rule="evenodd" clip-rule="evenodd" d="M14.88 89.2976C14.317 92.0376 11.511 89.7916 9.12 90.2576C10.306 88.5866 12.053 89.7746 14.88 89.2976Z" fill="white"/>
<path fill-rule="evenodd" clip-rule="evenodd" d="M27.36 89.2976C25.629 90.6966 17.57 90.5456 15.84 89.7776C18.78 88.7176 23.636 89.5746 27.36 89.2976Z" fill="white"/>
<path fill-rule="evenodd" clip-rule="evenodd" d="M123.36 89.7786C125.089 90.1276 123.672 91.2746 124.32 93.1376C122.5 93.5226 123.71 90.8686 123.36 89.7786Z" fill="white"/>
<path fill-rule="evenodd" clip-rule="evenodd" d="M145.44 90.7386C145.569 90.3796 147.909 97.1506 144.96 96.9786C144.68 94.4586 145.81 93.3436 145.44 90.7386Z" fill="white"/>
<path fill-rule="evenodd" clip-rule="evenodd" d="M138.72 90.7386C139.949 91.2686 139.662 93.3156 139.68 95.0576C137.04 94.3596 139.08 93.1156 138.72 90.7386Z" fill="white"/>
<path fill-rule="evenodd" clip-rule="evenodd" d="M150.24 91.2176C151.403 92.6376 150.962 94.3846 150.24 96.0176C148.91 94.9606 150.31 92.5976 150.24 91.2176Z" fill="white"/>
<path fill-rule="evenodd" clip-rule="evenodd" d="M417.6 91.2176C419.137 95.5526 418.521 111.489 419.04 120.979C419.261 125.015 419.977 127.491 416.159 128.178C418.489 118.847 414.052 104.407 415.68 95.0576C415.94 93.5766 417.5 92.5396 417.6 91.2146V91.2176Z" fill="white"/>
<path fill-rule="evenodd" clip-rule="evenodd" d="M143.04 91.6986C144.713 91.9456 143.744 94.8346 144 96.4986C141.27 96.4306 143.76 93.9486 143.04 91.6986Z" fill="white"/>
<path fill-rule="evenodd" clip-rule="evenodd" d="M147.84 91.6986C148.952 93.1696 148.84 94.5886 148.32 96.0176C147.36 94.5896 147.64 93.3476 147.84 91.6986Z" fill="white"/>
<path fill-rule="evenodd" clip-rule="evenodd" d="M141.12 92.1776C142.495 92.2426 140.705 95.4726 142.08 95.5376C140.48 97.2476 140.33 93.1606 141.12 92.1776Z" fill="white"/>
<path fill-rule="evenodd" clip-rule="evenodd" d="M414.24 95.0576C414.799 94.9806 415.094 95.1636 415.201 95.5376C415.382 100.194 414.318 105.294 414.24 111.378C414.154 118.131 417.585 126.773 413.28 132.018C412.481 119.163 413.49 110.666 412.32 96.9786C413.32 96.6916 413.96 96.0516 414.24 95.0546V95.0576Z" fill="white"/>
<path fill-rule="evenodd" clip-rule="evenodd" d="M410.4 98.4176C410.959 98.3396 411.254 98.5236 411.36 98.8976C412.035 104.256 410.826 109.813 410.881 115.217C410.955 122.663 414.121 130.614 409.441 134.417C408.694 120.978 409.974 109.064 408.962 99.3766C409.782 99.3956 410.202 99.0176 410.402 98.4136L410.4 98.4176Z" fill="white"/>
<path fill-rule="evenodd" clip-rule="evenodd" d="M360 108.981C360.966 110.415 361.003 112.777 361.439 114.741C360.209 113.571 360.169 111.211 359.999 108.981H360Z" fill="white"/>
<path fill-rule="evenodd" clip-rule="evenodd" d="M39.36 111.861C41.128 111.419 40.233 114.392 39.84 114.741C38.78 114.681 39.636 112.701 39.36 111.861Z" fill="black"/>
<path fill-rule="evenodd" clip-rule="evenodd" d="M42.24 112.821C43.755 112.203 43.755 116.799 42.24 116.18V112.82V112.821Z" fill="black"/>
<path fill-rule="evenodd" clip-rule="evenodd" d="M401.76 113.301C402.864 114.593 401.512 117.513 399.84 117.621C400.13 115.831 400.86 114.471 401.76 113.301Z" fill="black"/>
<path fill-rule="evenodd" clip-rule="evenodd" d="M403.68 113.301C405.192 115.315 402.679 117.404 402.24 119.061C400.99 117.301 403.81 115.531 403.68 113.301Z" fill="black"/>
<path fill-rule="evenodd" clip-rule="evenodd" d="M45.6 114.261C46.953 114.405 47.298 119.944 45.6 120.021V114.261Z" fill="black"/>
<path fill-rule="evenodd" clip-rule="evenodd" d="M48.96 114.741C50.783 116.828 49.967 123.877 49.44 126.741C48.773 122.441 47.996 118.851 48.96 114.741Z" fill="black"/>
<path fill-rule="evenodd" clip-rule="evenodd" d="M51.84 116.181C53.04 118.225 53.986 126.967 51.84 127.702V116.182V116.181Z" fill="black"/>
<path fill-rule="evenodd" clip-rule="evenodd" d="M54.72 116.661H56.16C55.774 122.98 57.832 127.709 55.2 132.02C54.949 126.99 55.745 120.91 54.72 116.66V116.661Z" fill="black"/>
<path fill-rule="evenodd" clip-rule="evenodd" d="M407.04 117.141C407.598 117.063 407.894 117.247 408 117.621C407.171 124.334 409.911 133.198 406.56 136.821C405.84 129.891 404.98 123.371 407.04 117.141Z" fill="white"/>
<path fill-rule="evenodd" clip-rule="evenodd" d="M58.08 119.061C60.345 122.935 59.068 128.925 59.52 134.902C56.427 132.232 58.85 124.052 58.08 119.062V119.061Z" fill="black"/>
<path fill-rule="evenodd" clip-rule="evenodd" d="M357.12 119.541C362.929 123.271 357.883 131.016 360.479 138.261C354.159 136.041 360.129 124.291 357.119 119.541H357.12Z" fill="white"/>
<path fill-rule="evenodd" clip-rule="evenodd" d="M61.92 122.421C64.077 126.024 62.3 133.561 62.88 138.741C59.985 136.151 61.667 126.561 61.92 122.421Z" fill="black"/>
<path fill-rule="evenodd" clip-rule="evenodd" d="M360.96 125.301C366.015 126.628 362.48 134.242 363.84 139.701C358.21 138.621 363.19 130.701 360.96 125.301Z" fill="white"/>
<path fill-rule="evenodd" clip-rule="evenodd" d="M64.7999 125.781C67.9339 127.766 65.4419 135.379 66.2399 139.701C63.1059 137.711 65.5979 130.101 64.7999 125.781Z" fill="black"/>
<path fill-rule="evenodd" clip-rule="evenodd" d="M364.8 128.181C365.855 128.726 366.395 129.786 367.68 130.101C366.304 132.725 368.111 138.533 366.72 141.141C362.58 139.811 365.97 131.291 364.8 128.181Z" fill="white"/>
<path fill-rule="evenodd" clip-rule="evenodd" d="M368.64 130.581C369.62 131.04 370.539 131.561 371.52 132.02C370.874 135.799 371.47 138.04 371.52 142.1C366.44 142.38 369.45 134.57 368.64 130.58V130.581Z" fill="white"/>
<path fill-rule="evenodd" clip-rule="evenodd" d="M372 132.981C372.694 131.858 374.856 133.287 375.84 133.461C375.104 136.468 375.046 140.877 376.319 142.581C377.377 140.39 376.743 135.769 376.319 133.461C376.877 133.864 377.606 134.094 378.719 133.94C378.621 136.635 379.299 140.584 378.719 143.541C376.149 143.032 374.165 142.925 372.479 142.581C372.159 139.531 373.109 135.221 371.999 132.981H372Z" fill="white"/>
<path fill-rule="evenodd" clip-rule="evenodd" d="M36.48 133.941C37.89 134.456 38.604 138.795 36.48 138.742V133.942V133.941Z" fill="black"/>
<path fill-rule="evenodd" clip-rule="evenodd" d="M379.68 133.941H382.56C382.246 136.987 383.193 141.295 382.081 143.542H381.121C378.771 142.212 381.201 136.102 379.681 133.942L379.68 133.941Z" fill="white"/>
<path fill-rule="evenodd" clip-rule="evenodd" d="M39.36 135.861C40.963 136.109 40.45 140.179 39.84 141.14C39.217 139.91 38.847 136.72 39.36 135.86V135.861Z" fill="black"/>
<path fill-rule="evenodd" clip-rule="evenodd" d="M42.72 135.861C44.19 137.534 43.951 143.13 43.2 145.461C42.264 143.251 42.777 137.381 42.72 135.861Z" fill="black"/>
<path fill-rule="evenodd" clip-rule="evenodd" d="M81.6 139.221C83.506 143.469 82.438 150.706 82.08 155.061C80.457 151.501 80.426 144.971 81.6 139.221Z" fill="black"/>
<path fill-rule="evenodd" clip-rule="evenodd" d="M396 24.0186C390.38 15.1626 368.675 16.3716 362.88 25.9386C374.158 6.92362 413.185 20.2796 405.6 46.5786C403.417 47.2756 401.529 48.2666 399.36 48.9786C403.451 37.8156 396.58 24.3836 384.961 22.5786C369.616 20.1946 358.354 33.5676 363.36 49.4586C358.807 43.0036 361.186 34.5696 364.8 29.2986C371.064 20.1636 385.779 18.8196 395.04 25.9386C388.142 15.5236 363.267 20.7416 360.96 33.1386C362.78 20.2446 385.64 13.8216 396 24.0186ZM402.24 31.2186C401.641 29.4176 401.131 27.5276 399.36 26.8986C400 28.6576 400.58 30.4726 402.24 31.2186ZM399.84 31.6986C399.66 29.4776 398.34 28.3986 396.96 27.3786C397.18 29.5566 398.58 30.5616 399.84 31.6986Z" fill="white"/>
<path fill-rule="evenodd" clip-rule="evenodd" d="M360.96 27.3776C361.986 27.6096 358.824 31.5216 358.56 33.6176C357.3 31.3806 360.02 29.0076 360.96 27.3776Z" fill="white"/>
<path fill-rule="evenodd" clip-rule="evenodd" d="M403.68 49.9386C410.941 52.2786 414.514 58.3056 418.08 64.3386C418.085 61.1286 415.104 56.7586 412.8 54.2586C426.296 62.6336 422.339 92.4126 407.04 97.4586C404.543 97.2346 403.019 96.0396 400.8 95.5386C407.145 91.6116 415.129 85.7076 416.159 75.8586C416.978 68.0376 413.904 61.9236 409.439 57.1386C412.397 56.5876 413.512 62.0196 415.679 63.8586C414.159 56.7346 408.629 53.6246 403.679 49.9386H403.68ZM417.6 68.6586C417.535 67.1236 418.074 64.9856 416.16 65.2986C416.33 66.7296 416.44 68.2206 417.6 68.6586ZM420 71.0586C419.775 69.3626 420.784 66.4336 418.56 66.7386C419.26 67.9616 418.25 70.8906 420 71.0586ZM417.12 74.8976C418.834 75.0416 418.414 70.0386 417.12 70.0976V74.8976ZM420 77.7786C419.702 76.4756 420.609 73.9686 419.52 73.4586C419.21 74.6786 417.38 77.8196 420 77.7786Z" fill="white"/>
<path fill-rule="evenodd" clip-rule="evenodd" d="M132.48 90.7386C129.829 93.3956 124.617 94.8616 121.44 95.5386C119.278 95.0836 121.338 90.8556 120.48 90.2586C114.032 90.1456 111.964 90.7696 105.12 90.7386C104.398 109.567 106.219 140.154 104.64 159.859C76.76 159.731 56.927 160.2 32.16 160.338C31.428 142.607 31.611 108.05 31.68 91.2176C24.321 92.6586 13.258 90.3956 6.72 92.6576C4.777 87.5606 2.37 82.9276 0 78.2576C2.131 72.3886 5.174 67.4316 7.2 61.4576C36.825 60.5976 70.041 61.3506 90.72 60.9776C97.323 60.8586 109.49 60.0236 119.04 60.4976C121.252 60.7896 118.756 56.3726 121.44 57.1376C124.742 55.9096 128.123 57.9086 130.08 59.5376C135.025 56.1886 141.605 50.9356 149.76 53.2976C152.76 54.1666 154.421 56.6956 156.96 58.5776C198.857 59.2266 234.837 57.4446 274.08 58.0976C287.515 58.3216 302.062 60.0986 314.399 58.0976C331.856 55.2656 331.937 33.1046 340.799 21.1376C348.836 10.2846 361.974 0.550614 380.159 0.0176138C393.582 -0.375386 405.656 5.86561 416.158 12.9776C428.974 27.4286 438.261 41.3576 440.638 63.8576C443.299 89.0336 433.638 115.956 420.958 129.138C416.404 133.871 408.047 139.973 400.798 142.578C378.884 150.453 355.786 141.628 344.638 128.658C340.762 124.148 338.065 118.233 335.518 112.818C331.002 103.215 328.735 91.3946 315.359 89.7776C307.281 88.8006 297.476 90.0536 288.478 90.2566C249.202 91.1436 210.36 92.1086 167.998 93.6166C164.823 93.7296 161.032 92.9906 157.918 93.6166C153.298 94.5456 151.745 98.3586 144.478 98.4166C140.318 98.4486 136.228 95.2026 132.478 90.7356L132.48 90.7386ZM408 10.5786C386.623 -5.68439 354.564 5.20361 342.24 22.0986C332.63 35.2716 332.185 54.7336 317.76 62.8986C322.858 63.2416 327.514 64.0256 327.84 69.1386C330.217 69.7556 327.383 65.1606 329.76 65.7786C329.316 72.1046 330.176 76.8206 330.24 81.6186C330.318 87.4746 327.868 95.5856 332.16 98.8986C331.742 88.1496 331.229 75.6276 332.16 61.9386C335.399 73.9546 329.907 96.9876 335.519 108.019C336.181 92.4286 334.202 73.7066 336.479 59.5396C336.736 71.3016 336.835 78.8876 336.479 90.2596C336.283 96.5456 335.553 105.205 336.479 111.38C336.709 112.914 338.011 114.509 338.879 115.7C338.858 95.1256 337.499 73.5916 339.358 55.2196C340.175 58.1726 338.919 62.7266 339.838 65.2996C342.772 57.5126 346.938 50.9596 354.237 47.5396C347.167 13.0636 397.405 1.00562 407.998 33.1396C408.569 29.6886 406.477 26.5216 408.958 24.9796C408.354 31.2386 408.845 37.0156 408.958 42.2596C409.021 45.1936 407.173 48.1896 411.357 48.4996C411.371 36.6656 409.851 27.7116 411.837 14.4196C411.949 23.6046 412.316 30.7746 412.316 39.3796C412.316 43.8486 410.836 50.0426 415.197 51.3796C414.533 41.7416 414.271 26.7886 415.197 18.7396C416.035 31.4576 416.037 41.7016 416.156 52.8196C417.445 53.4506 417.114 55.7016 419.037 55.6996C417.716 42.6776 417.923 33.0816 419.037 22.5796C420.959 33.8056 417.398 54.1556 422.396 61.9396C422.588 50.9886 421.064 37.4296 422.396 27.3796C425.32 55.5026 422.182 93.0096 424.316 118.58C425.066 117.152 426.093 115.472 426.236 113.78C426.924 105.655 425.757 94.5546 425.757 83.5396C425.757 64.6126 424.85 46.2666 426.236 33.1396C428.587 61.1086 425.62 85.5846 427.676 112.82C428.558 111.163 429.619 108.345 429.596 107.54C429.029 88.0216 428.983 60.6796 428.636 42.2596C428.607 40.7266 429.392 38.9276 429.116 37.4596C428.135 32.2286 423.358 26.8996 420.475 23.0596C416.941 18.3516 412.959 14.1006 408.475 11.5396C408.429 12.2936 408.539 13.2046 407.515 12.9796C407.115 11.6206 408.195 11.7336 407.995 10.5776L408 10.5786ZM360.96 33.1386C363.267 20.7416 388.142 15.5236 395.04 25.9386C385.779 18.8196 371.063 20.1636 364.8 29.2986C361.186 34.5696 358.807 43.0036 363.36 49.4586C358.353 33.5676 369.616 20.1946 384.961 22.5786C396.58 24.3836 403.451 37.8156 399.36 48.9786C401.529 48.2676 403.418 47.2756 405.6 46.5786C413.185 20.2796 374.159 6.92361 362.88 25.9386C368.675 16.3716 390.38 15.1626 396 24.0186C385.64 13.8216 362.78 20.2446 360.96 33.1386ZM395.04 29.7786C383.577 18.6616 362.763 26.6796 363.359 42.7386C363.499 46.4876 365.85 48.5716 365.28 53.2986C345.637 56.4096 342.08 84.4696 359.04 93.1376C361.957 94.6286 365.243 93.7936 367.2 96.9786C360.516 110.16 369.429 123.618 380.639 124.338C396.496 125.359 404.235 107.447 396.479 94.5776C406.848 92.1636 414.472 84.2476 414.719 73.4576C414.998 61.2576 405.826 55.8156 396.959 51.3776C400.069 44.9236 399.209 34.2686 395.039 29.7756L395.04 29.7786ZM358.56 33.6186C358.825 31.5216 361.987 27.6106 360.96 27.3786C360.02 29.0076 357.3 31.3806 358.56 33.6186ZM357.6 47.0586C355.907 42.4686 357.894 39.7046 357.121 35.0586C356.451 38.7796 354.351 44.8316 357.601 47.0586H357.6ZM360 48.0186C358.973 46.8056 360.383 43.1556 358.56 42.7386C359.02 44.5196 358.49 47.2886 360 48.0186ZM431.04 44.6586C429.889 67.8076 430.739 82.9746 430.56 105.138C433.964 97.3646 432.48 85.9046 432.48 75.3776C432.48 64.5096 432.935 53.1466 432.001 44.1776C431.899 43.6386 431.468 43.4296 431.041 43.2176V44.6556L431.04 44.6586ZM415.68 63.8576C413.513 62.0196 412.398 56.5866 409.44 57.1376C413.905 61.9226 416.979 68.0366 416.16 75.8576C415.13 85.7066 407.145 91.6106 400.801 95.5376C403.02 96.0386 404.544 97.2336 407.041 97.4576C422.34 92.4116 426.297 62.6336 412.801 54.2576C415.106 56.7576 418.086 61.1276 418.081 64.3376C414.515 58.3046 410.941 52.2776 403.681 49.9376C408.631 53.6246 414.161 56.7346 415.681 63.8576H415.68ZM433.44 95.5386C435.393 93.1116 435.899 88.7946 435.84 84.4986C435.693 73.6846 436.091 57.3696 433.44 50.4186C433.68 66.2296 434.07 81.0166 433.44 95.5386ZM137.76 56.1786C137.677 57.5366 138.173 59.4716 136.8 59.5386C136.745 58.9536 136.656 58.4026 135.84 58.5786C136.068 60.7556 135.841 62.1346 133.92 60.9786C133.915 62.2536 134.101 63.7206 133.44 64.3386C132.593 63.9196 131.954 62.7326 131.52 64.3386C132.879 64.2596 131.121 67.2976 132.48 67.2186C133.146 66.9236 132.552 65.3706 133.44 65.2986C134.461 68.7566 132.877 74.8216 134.88 77.2986C135.197 72.9756 134.244 67.3826 135.36 63.8586C136.428 68.5506 135.502 75.2366 136.8 79.6986C137.919 76.8276 136.101 68.1326 138.24 64.8186C138.778 71.8756 137.636 75.4346 139.2 79.6986C140.21 72.9126 138.47 69.4076 140.16 63.8586C141.607 66.3666 139.528 72.9026 141.6 73.4586C141.913 70.8916 140.97 67.0686 142.08 65.2986C143.39 67.9176 141.391 76.0416 143.52 79.2186C145.24 75.4176 142.101 66.1246 144.96 63.3786C144.656 65.1726 144.204 66.1276 145.92 66.7386C144.919 62.0006 147.774 56.2986 144 54.2586C144.271 55.3006 145.146 58.1886 144 59.0586C141.615 58.6436 144.845 55.4266 143.04 54.2586C141.55 55.1656 139.45 55.4646 137.76 56.1786ZM148.32 77.7786C148.784 68.9106 147.313 63.0036 148.32 55.2186C147.706 55.1926 147.655 54.6036 146.88 54.7386C147.47 62.3116 145.51 72.4246 148.32 77.7786ZM248.64 60.9786C254.668 59.4876 265.291 61.6786 269.281 59.5386C248.119 59.9556 230.347 58.8916 209.281 60.0186C218.181 61.3526 226.674 59.0476 235.201 61.4586C225.026 61.7376 216.427 60.1326 204.481 62.4186C226.512 62.6766 252.556 62.2016 270.721 62.4186C290.689 62.6566 315.75 66.9646 324.481 55.2186C315.682 62.7396 295.022 58.3996 279.841 59.5386C280.983 60.9266 289.114 59.4276 289.921 61.4586C275.831 61.2616 260.371 61.7446 248.641 60.9786H248.64ZM150.24 79.2186C150.906 70.9156 150.822 64.3596 149.28 56.1786C149.08 61.0056 148.71 73.4316 150.24 79.2186ZM122.88 58.5786V62.4186C122.195 62.2316 122.07 61.8426 121.44 62.4186C121.332 64.4236 122.22 64.6856 121.44 66.2586C122.641 66.1986 122.942 65.3416 123.36 66.7386C123.821 71.8826 122.478 77.9676 123.84 81.1386C125.229 78.0476 123.4 71.7386 124.8 68.6586C125.592 68.6656 125.069 69.9896 125.76 70.0986C125.448 67.6906 126.389 64.0296 125.28 62.4186C125.047 62.9856 124.768 63.5066 124.32 63.8586C123.383 62.6826 123.84 59.8246 124.8 59.0586C124.7 60.4376 124.922 61.4966 125.76 61.9386C124.997 60.2406 126.608 58.9526 124.8 58.0986C124.38 58.8226 124.08 57.9656 122.88 58.5786ZM152.64 73.4586C152.275 67.5286 152.981 65.3546 151.68 60.4986C151.94 63.7776 150.61 69.9706 152.64 73.4586ZM157.44 61.4586C157.148 61.4856 156.872 61.5306 156.96 61.9386C171.316 62.4576 191.331 63.3526 204 61.4586C186.33 61.8076 171.44 60.7796 157.44 61.4586ZM120 62.8976C102.888 64.6086 84.913 64.3376 64.32 64.3376C41.768 64.3376 29.598 64.9136 8.64 64.8176C8.468 69.2596 8.95 72.9886 8.64 76.3376C41.722 76.3606 88.891 75.0236 120 75.3776C81.286 79.3606 39.483 75.6006 8.64 78.7386C24.092 79.0206 44.52 78.9356 65.76 78.7386C86.129 78.5496 101.252 77.6556 120.48 77.7786C119.792 71.9806 121.859 64.6016 119.04 61.9386C119.09 62.5236 119.18 63.0746 120 62.8976ZM323.52 65.7786C321.325 64.0376 313.374 64.3506 307.68 64.3386C287.474 64.2946 267.627 64.3336 253.441 64.3386C226.899 64.3486 200.407 63.4626 179.041 64.3386C173.78 64.5546 169.021 63.7986 164.641 66.2586C210.659 65.6296 259.502 65.5876 288.961 65.7786C300.823 65.8556 313.149 64.4146 323.521 68.6586C325.216 72.2256 324.719 79.0456 322.082 81.1386C308.334 82.0016 294.304 81.6456 280.802 82.0986C253.262 83.0216 215.014 83.3276 185.282 84.4986C178.313 84.7726 170.708 86.2956 164.162 84.9786C162.26 84.5956 157.032 79.5656 156.962 82.0986C156.852 86.0836 169.21 86.8346 173.282 86.8986C225.691 87.7196 273.942 82.8676 323.042 82.5786C326.272 79.1236 327.392 68.8466 323.522 65.7786H323.52ZM347.04 82.0986C346.958 82.8166 347.211 83.8696 346.56 84.0186C346.183 82.1566 345.073 81.0266 345.121 78.7386C345.781 78.7176 346.175 78.9646 346.56 79.2186C346.373 77.9656 346.314 76.5846 345.6 75.8586C345.545 76.4446 345.456 76.9956 344.64 76.8186C343.393 74.2106 345.437 69.6336 344.64 66.2586C343.105 70.3276 343.25 75.2166 343.68 80.1786C342.995 80.0636 342.87 79.3876 342.241 79.2186C341.855 80.8836 342.956 81.0636 342.72 82.5786C344.273 83.1716 343.087 81.0256 344.64 81.6186C344.429 84.2426 347.879 85.7226 346.56 87.8586C345.607 88.1026 345.462 85.2106 344.64 86.8986C347.59 92.2686 351.865 96.3136 357.6 98.8986C358.788 97.5256 361.453 97.6296 362.4 96.0176C354.5 94.1586 350.68 88.2176 347.04 82.0986ZM436.8 83.0586C436.691 77.6566 437.867 71.6996 436.32 66.7386C436.54 70.9176 435.63 79.3906 436.8 83.0586ZM145.92 75.3776C145.608 72.8106 146.55 68.9876 145.441 67.2176C144.581 69.0686 144.271 73.5586 145.921 75.3776H145.92ZM342.24 72.0186C342.371 70.3016 343.231 68.9746 342.24 67.2186C341.65 67.9446 341.3 71.3526 342.24 72.0186ZM4.8 72.4986C5.084 71.5026 5.724 70.8626 6.72 70.5786C6.791 69.3886 6.809 68.2486 5.76 68.1786C5.811 69.6956 3.64 71.4606 4.8 72.4986ZM130.56 75.8576C131.245 74.4466 131.438 70.0376 130.56 68.6576C130.7 71.6996 129.64 73.3786 130.56 75.8576ZM3.36 76.8176C3.817 76.1166 4.97 73.6786 3.84 72.9776C3.267 73.5186 1.652 77.0736 3.36 76.8176ZM132 76.8176C133.645 77.3046 133.144 73.2126 132.48 72.9776C132.19 74.1276 131.79 75.1676 132 76.8176ZM212.64 75.8576C228.85 75.6506 235.323 75.9156 251.519 74.8976C242.729 75.2526 223.999 73.8126 212.639 75.8576H212.64ZM252.96 74.8976C252.778 75.3636 260.983 76.3136 261.6 74.4176C258.81 74.6656 254.98 73.8786 252.96 74.8976ZM269.28 74.4176C267.347 74.7256 264.176 73.7936 263.04 74.8976C264.08 75.3496 269.03 76.2876 269.28 74.4176ZM272.16 75.3776C273.82 75.7676 274.186 74.4816 275.04 75.3776C275.48 73.6336 271.87 74.2806 272.16 75.3776ZM342.24 78.2586C341.844 77.0536 343.173 74.1256 341.28 74.4186C341.6 75.7006 341.48 77.4176 342.24 78.2586ZM168.96 76.3376C184.174 75.6506 197.355 77.1596 211.68 74.8976C200.33 76.1776 186.12 73.8496 168.96 76.3376ZM145.92 80.6586C145.46 79.1986 146.948 75.7906 144.96 75.8586C144.99 77.7446 145.19 79.4656 145.92 80.6586ZM181.44 78.2586C182.435 77.9726 184.593 78.8516 184.8 77.7786C183.97 76.9416 181.83 77.2466 181.44 78.2586ZM180.96 77.7786C177.117 78.0946 172.005 77.1426 168.96 78.2586C172.8 77.9416 177.92 78.8936 180.96 77.7786ZM304.32 78.2586C311.012 78.5136 310.855 77.4716 303.84 77.7786C257.571 78.4396 218.208 78.5866 170.4 80.6586C211.5 80.7076 261.32 79.5296 304.32 78.2586ZM328.8 93.1376C328.483 88.3356 329.437 82.2616 328.32 78.2586C326.51 82.1736 325.19 90.5386 328.8 93.1376ZM103.68 80.6586C101.561 80.7286 96.618 81.7666 95.04 81.1386C100.426 83.2836 109.806 80.3896 115.68 80.1786C110.86 79.8076 107.43 80.5336 103.68 80.6586ZM251.04 81.1386C244.04 82.7066 247.75 80.0166 251.04 81.1386V81.1386ZM255.36 81.6186C258.902 81.0366 260.949 82.1066 262.08 80.6586C259.91 81.0506 256.04 79.7326 255.36 81.6186ZM269.28 80.6586C268.285 80.9446 266.127 80.0656 265.92 81.1386C267.15 81.5746 268.64 81.9166 269.28 80.6586ZM26.88 82.0986H34.08C33.255 80.0506 28.002 81.3016 26.88 82.0986ZM40.8 81.1386C39.806 81.4246 37.647 80.5456 37.44 81.6186C38.315 82.5016 40.13 81.8726 40.8 81.1386ZM59.52 81.1386H53.28C51.348 81.4466 48.176 80.5146 47.04 81.6186C51.043 81.3016 56.315 82.2536 59.52 81.1386ZM170.88 83.0586C192.324 83.0036 221.875 83.1996 245.28 81.1386C218.73 81.4756 196.3 81.1456 170.88 83.0586ZM350.4 99.3776C350.556 107.041 350.693 114.056 350.4 120.498C350.188 125.18 349.073 131.277 352.8 133.458C352.818 123.012 351.867 111.154 353.76 101.298C353.532 106.795 354.678 113.487 354.72 120.498C354.746 124.884 351.847 133.288 356.64 135.858C354.811 129.964 357.035 124.108 356.64 118.097C356.292 112.79 353.005 107.37 355.201 100.818C347.341 97.6366 343.42 90.5176 339.841 83.0576C339.816 95.7396 339.926 106.04 339.841 118.098C341.051 118.969 340.848 121.251 342.241 121.938C341.672 110.156 341.353 102.928 342.241 89.2976C343.666 95.4506 343.519 106.733 343.201 116.658C343.08 120.42 342.621 124.772 345.6 126.258C344.969 113.994 344.977 105.487 345.6 94.5776C346.217 99.4386 347.409 104.608 347.52 109.938C347.685 117.776 343.833 126.817 349.44 130.097C349.168 122.053 348.25 107.39 349.92 97.9376C349.95 98.5476 350.54 98.5986 350.4 99.3736V99.3776ZM325.44 88.8186C326.245 87.8266 325.867 83.9326 324.48 83.5386C322.93 84.6466 323.51 88.4056 325.44 88.8186ZM76.8 84.9786C88.741 86.5286 103.182 85.9276 117.6 84.4986C103.35 84.8536 93.293 85.0006 76.8 84.9786ZM118.08 85.4586C118.987 85.2456 120.973 86.1116 120.48 84.4986C119.57 84.7106 117.59 83.8456 118.08 85.4586ZM420 123.861C424.693 121.018 422.086 112.574 421.92 107.06C421.683 99.1906 422.893 92.9166 422.399 84.9806C422.294 84.6056 421.998 84.4216 421.439 84.5006C417.689 94.6526 421.599 109.69 419.999 123.86L420 123.861ZM32.64 85.9386C48.185 86.6746 58.13 86.3626 76.32 85.4586C62.807 84.8256 49.793 85.0076 32.64 85.9386ZM19.2 86.4176C21.932 85.9486 26.638 87.4556 27.84 85.4576C25.312 86.6326 21.082 84.0606 19.2 86.4176ZM29.28 86.4176C30.187 86.2046 32.173 87.0706 31.68 85.4576C30.773 85.6706 28.787 84.8056 29.28 86.4176ZM137.76 93.6186C137.228 91.7506 137.523 89.0556 136.32 87.8586C136.73 89.8476 135.22 93.7616 137.76 93.6186ZM84.96 88.8186C85.869 108.844 86.418 124.422 84.96 140.178C83.663 126.051 84.307 105.515 84 94.5776C83.95 92.8096 85.268 89.1306 82.56 88.8176C80.572 106.404 84.06 121.716 81.6 135.378C80.173 120.395 80.859 109.271 80.64 95.5376C80.61 93.6666 81.893 89.7856 79.2 88.8176C78.153 103.533 80.612 116.381 78.72 131.057C75.976 118.502 79.101 99.3556 76.8 88.8176C74.765 91.0716 75.803 95.3636 75.84 98.8976C75.922 106.674 75.629 113.107 75.84 119.057C75.961 122.458 77.957 126.979 74.88 129.618C73.815 119.31 75.2 107.465 74.4 94.0966C74.321 92.7746 75.722 88.5056 72.48 88.8176C72.592 96.4016 72.825 105.691 72.48 113.297C72.308 117.077 73.694 121.656 71.52 123.858C71.925 117.086 70.475 109.462 70.56 102.257C70.598 99.0506 72.741 88.8126 69.6 88.8176C69.2 94.7156 69.674 105.276 69.12 111.858C68.808 115.574 70.599 120.086 68.16 121.937C68.065 113.423 67.808 102.036 67.68 93.1366C67.66 91.7286 69.056 89.1456 66.72 88.8176C64.306 96.2946 68.237 111.106 64.8 117.137C65.701 109.956 63.711 102.623 63.84 96.4966C63.899 93.7156 66.268 90.2726 63.36 88.8166C60.575 90.7656 62.685 95.1156 62.88 98.8966C63.15 104.12 62.535 110.047 61.92 114.737C60.291 110.779 62.426 103.037 60 98.8966C58.999 102.527 60.735 109.26 58.56 112.817C58.754 107.348 57.555 101.829 57.6 96.0156C57.615 94.1316 59.661 90.1076 56.64 88.8166C54.943 93.4426 57.911 103.547 55.2 108.977C54.674 102.303 55.619 94.1576 53.76 88.8166C50.988 93.4206 55.003 102.483 52.32 106.577C51.946 103.078 51.671 97.8086 51.36 93.6166C51.261 92.2766 52.492 89.3646 50.4 89.2966C48.508 93.5676 50.865 98.9606 48.96 102.737C47.349 100.673 50.306 90.7366 47.04 88.8166C45.388 91.1646 48.051 97.8276 45.6 99.3766C44.957 96.0196 47.072 89.9036 44.16 88.8166C41.803 91.5266 45.323 96.2466 42.24 96.9766C41.688 94.6486 43.4 90.0566 41.28 89.2956C38.843 89.2596 41.723 94.5386 39.36 94.5756C38.618 93.3276 40.151 90.4446 38.88 88.8156C36.902 88.4366 37.978 91.1136 36 90.7356C36.732 88.5626 34.158 89.6976 33.6 88.8156C31.796 103.384 33.448 121.76 33.6 142.095C33.636 146.942 31.387 152.521 34.56 156.495C35.116 153.05 33.669 149.078 34.56 146.895C37.109 148.691 33.227 156.134 36.96 156.495C37.88 155.227 35.926 150.197 37.44 148.335C39.428 151.08 36.128 156.119 39.84 156.495C41.223 155.023 38.979 151.938 40.32 149.775C42.286 151.601 39.625 154.925 42.24 156.495C43.865 155.72 41.299 150.754 43.68 150.735C44.254 152.56 42.31 156.905 45.12 156.495C46.389 151.829 46.113 144.978 46.08 139.695C46.068 137.775 44.445 134.656 47.04 133.934C46.882 136.567 47.04 141.019 47.04 145.455C47.04 149.055 45.631 156.213 48.96 156.495C49.878 152.297 47.972 142.407 49.44 136.335C51.371 141.688 49.009 150.662 51.36 156.495C53.796 151.46 50.512 141.695 52.8 137.295C55.168 142.914 51.33 152.681 54.72 156.495C57.144 152.073 53.339 142.673 56.16 138.735C58.265 144.092 55.465 153.113 57.6 156.495C59.951 152.795 56.272 142.659 59.52 140.175C59.15 141.978 59.897 143.52 60 145.455C60.211 149.438 58.616 155.149 61.44 156.495C61.852 153.052 60.556 146.766 62.4 142.575C64.996 145.319 61.346 154.358 64.32 156.495C66.151 152.157 63.33 148.122 66.24 144.015C67.313 149.808 64.524 154.507 68.16 156.495C70.132 145.171 66.158 137.373 69.12 127.215C70.172 132.751 69.439 143.212 69.6 150.736C69.626 151.956 69.184 156.706 71.04 156.015C72.157 154.974 71.674 149.956 71.52 146.415C71.28 140.922 69.711 133.07 72.48 129.615C72.831 135.933 72.874 141.822 72.96 147.375C73.005 150.314 72.146 154.492 74.4 156.015C75.705 149.044 72.73 138.527 75.36 131.055C76.76 138.193 76.13 144.48 75.84 150.255C75.744 152.173 75.03 155.64 77.28 156.495C79.355 152.19 76.479 143.23 78.24 135.855C80.515 140.071 79.474 148.701 79.2 155.535C81.066 156.514 83.469 156.538 85.44 155.535C84.615 151.204 84.3 146.135 85.44 142.095C87.539 146.741 83.902 153.512 87.84 156.015C89.037 136.852 85.766 108.711 88.32 89.2946C88.729 105.502 89.28 123.405 89.28 144.495C89.28 148.301 87.537 155.663 91.68 156.015C91.627 134.817 91.384 109.662 91.2 88.3346C88.906 88.8966 88.097 88.6466 84.96 88.8126V88.8186ZM92.64 88.3376V89.7776C92.078 105.293 93.193 129.22 93.12 147.378C93.108 150.389 91.542 154.922 94.56 156.018C96.056 137.85 94.56 116.932 94.56 96.0176C94.56 94.3156 96.703 89.1626 93.6 88.3376C93.28 88.3346 92.96 88.3346 92.64 88.3346V88.3376ZM96.48 89.7786C96.462 108.223 95.891 131.812 96.48 151.218C96.517 152.443 95.592 155.976 97.92 156.018C99.853 154.729 99.049 150.532 98.88 147.859C97.882 132.127 99.445 105.908 97.44 88.3376H96C96.075 88.9016 95.917 89.6986 96.48 89.7766V89.7786ZM99.36 89.7786C99.563 107.357 100.059 129.168 99.84 147.859C99.797 151.569 99.519 154.139 101.28 156.018C102.18 133.517 101.432 115.131 101.28 97.4576C101.255 94.4836 102.376 90.6566 100.32 88.3376H99.36V89.7756V89.7786ZM113.76 88.3376C111.193 88.6496 107.37 87.7076 105.6 88.8176C108.17 88.5046 111.99 89.4486 113.76 88.3376ZM60.48 97.4586C60.367 93.3966 61.027 92.9566 60.96 89.2986C60.346 89.2726 60.295 88.6836 59.52 88.8196C58.616 91.1546 59.008 95.9386 60.48 97.4586ZM9.12 90.2576C11.511 89.7916 14.317 92.0376 14.88 89.2976C12.053 89.7746 10.306 88.5866 9.12 90.2576ZM15.84 89.7786C17.57 90.5466 25.629 90.6976 27.36 89.2986C23.636 89.5746 18.78 88.7176 15.84 89.7786ZM124.32 93.1376C123.672 91.2746 125.09 90.1266 123.36 89.7786C123.71 90.8686 122.5 93.5226 124.32 93.1376ZM144.96 96.9786C147.91 97.1506 145.57 90.3786 145.44 90.7386C145.81 93.3436 144.68 94.4586 144.96 96.9786ZM139.68 95.0576C139.662 93.3156 139.949 91.2686 138.72 90.7386C139.08 93.1156 137.04 94.3596 139.68 95.0576ZM150.24 96.0176C150.962 94.3846 151.403 92.6376 150.24 91.2176C150.31 92.5976 148.91 94.9606 150.24 96.0176ZM415.68 95.0576C414.052 104.407 418.49 118.847 416.159 128.178C419.976 127.49 419.261 125.015 419.04 120.979C418.52 111.489 419.137 95.5526 417.6 91.2176C417.5 92.5406 415.94 93.5776 415.68 95.0556V95.0576ZM144 96.4986C143.744 94.8346 144.713 91.9456 143.04 91.6986C143.76 93.9486 141.27 96.4306 144 96.4986ZM148.32 96.0176C148.84 94.5876 148.952 93.1686 147.84 91.6986C147.64 93.3476 147.36 94.5896 148.32 96.0176ZM142.08 95.5386C140.705 95.4736 142.495 92.2436 141.12 92.1786C140.33 93.1606 140.48 97.2476 142.08 95.5386ZM412.32 96.9786C413.49 110.667 412.481 119.163 413.28 132.018C417.585 126.773 414.154 118.131 414.24 111.378C414.318 105.294 415.382 100.194 415.201 95.5376C415.095 95.1636 414.799 94.9796 414.24 95.0576C413.96 96.0516 413.32 96.6916 412.32 96.9756V96.9786ZM388.32 127.221C391.341 129.339 396.546 123.069 398.881 122.902C386.461 137.772 358.578 128.203 357.601 108.502C359.133 142.265 412.953 136.707 406.561 100.822C404.157 99.8656 402.055 98.6066 399.361 97.9416C411.683 127.093 365.014 136.782 362.401 108.021C362.585 120.388 372.852 128.815 385.441 127.221C390.553 126.575 393.818 122.796 397.441 121.461C395.391 124.371 392.401 126.331 388.321 127.221H388.32ZM408.96 99.3776C409.973 109.066 408.692 120.979 409.439 134.418C414.12 130.615 410.954 122.664 410.879 115.218C410.824 109.814 412.033 104.257 411.358 98.8986C411.253 98.5246 410.957 98.3396 410.398 98.4186C410.198 99.0186 409.778 99.3966 408.958 99.3746L408.96 99.3776ZM362.88 107.541C362.566 105.759 363.343 102.601 362.88 102.261C362.31 103.361 360.9 106.841 362.88 107.541ZM361.44 114.741C361.003 112.777 360.966 110.415 360.001 108.981C360.171 111.211 360.211 113.571 361.441 114.741H361.44ZM370.56 125.301C366.89 122.891 364.197 119.504 361.92 115.701C363.21 120.171 367.15 124.551 370.56 125.301ZM406.56 136.821C409.912 133.198 407.171 124.334 408 117.621C407.894 117.247 407.598 117.062 407.04 117.141C404.98 123.371 405.84 129.891 406.56 136.821ZM360.48 138.261C357.883 131.016 362.929 123.272 357.121 119.541C360.131 124.291 354.161 136.041 360.481 138.261H360.48ZM383.52 133.941C384.195 136.947 382.005 142.817 384.96 143.542C388.745 141.959 384.015 136.587 386.88 134.422C387.9 136.443 387.112 140.269 387.359 143.062H389.759C391.465 139.86 387.89 135.665 391.199 133.462C391.698 136.609 391.002 138.68 391.199 142.582C392.667 142.93 392.61 141.754 394.079 142.102C394.175 138.691 392.505 134.983 394.558 132.022C395.976 135.065 395.293 137.689 395.038 141.623C396.194 141.819 396.081 140.746 397.437 141.143C397.952 137.818 396.332 132.358 398.397 130.583C398.834 132.93 398.859 136.278 398.877 140.183C400.282 140.308 400.352 139.098 401.757 139.223C401.727 135.282 399.568 127.391 403.197 126.744C402.65 130.101 402.838 134.71 402.717 138.264C406.719 137.733 404.128 127.021 404.156 122.905C399.656 128.965 393.196 133.065 383.516 133.945L383.52 133.941ZM363.84 139.701C362.48 134.242 366.015 126.628 360.96 125.301C363.19 130.701 358.21 138.621 363.84 139.701ZM378.24 128.181C376.309 127.746 374.223 126.226 373.44 127.221C374.69 127.601 377.34 129.051 378.24 128.181ZM366.72 141.141C368.111 138.533 366.304 132.725 367.68 130.101C366.395 129.787 365.855 128.726 364.8 128.181C365.97 131.291 362.58 139.811 366.72 141.141ZM371.52 142.101C371.47 138.04 370.874 135.8 371.52 132.021C370.54 131.562 369.621 131.041 368.64 130.582C369.45 134.572 366.44 142.382 371.52 142.102V142.101ZM372.48 142.581C374.167 142.925 376.15 143.032 378.72 143.541C379.3 140.584 378.622 136.636 378.72 133.94C377.607 134.093 376.877 133.864 376.32 133.461C376.744 135.769 377.378 140.39 376.32 142.581C375.047 140.877 375.104 136.468 375.841 133.461C374.858 133.286 372.695 131.857 372.001 132.981C373.111 135.221 372.161 139.531 372.481 142.581H372.48ZM381.12 143.541H382.08C383.192 141.294 382.245 136.986 382.559 133.94H379.679C381.199 136.1 378.769 142.21 381.119 143.54L381.12 143.541Z" fill="black"/>
<path fill-rule="evenodd" clip-rule="evenodd" d="M362.4 96.0176C361.453 97.6296 358.788 97.5256 357.6 98.8986C351.865 96.3136 347.59 92.2686 344.64 86.8986C345.462 85.2106 345.607 88.1026 346.56 87.8586C347.879 85.7216 344.429 84.2416 344.64 81.6186C343.087 81.0256 344.273 83.1716 342.72 82.5786C342.955 81.0636 341.855 80.8836 342.241 79.2186C342.871 79.3876 342.996 80.0636 343.68 80.1786C343.25 75.2166 343.105 70.3276 344.64 66.2586C345.437 69.6336 343.393 74.2106 344.64 76.8186C345.456 76.9956 345.545 76.4446 345.6 75.8586C346.314 76.5856 346.373 77.9656 346.56 79.2186C346.174 78.9646 345.781 78.7176 345.121 78.7386C345.073 81.0266 346.183 82.1556 346.56 84.0186C347.211 83.8706 346.958 82.8166 347.04 82.0986C350.68 88.2176 354.5 94.1586 362.4 96.0176ZM348 85.9386C348.205 87.6526 349.205 88.5726 350.399 89.2976C350.209 87.5686 349.619 86.2406 347.999 85.9386H348Z" fill="white"/>
<path fill-rule="evenodd" clip-rule="evenodd" d="M349.92 97.9386C348.249 107.391 349.167 122.054 349.44 130.098C343.834 126.818 347.685 117.777 347.52 109.939C347.409 104.609 346.217 99.4396 345.6 94.5786C344.977 105.487 344.969 113.995 345.6 126.259C342.621 124.774 343.079 120.421 343.201 116.659C343.519 106.733 343.666 95.4516 342.241 89.2986C341.353 102.929 341.672 110.156 342.241 121.939C340.847 121.252 341.051 118.97 339.841 118.099C339.926 106.041 339.816 95.7416 339.841 83.0586C343.42 90.5186 347.341 97.6386 355.201 100.819C353.006 107.372 356.293 112.792 356.64 118.098C357.035 124.109 354.811 129.965 356.64 135.859C351.847 133.289 354.746 124.884 354.72 120.499C354.678 113.488 353.532 106.796 353.76 101.299C351.867 111.155 352.818 123.013 352.8 133.459C349.072 131.278 350.188 125.181 350.4 120.499C350.693 114.057 350.556 107.042 350.4 99.3786C350.54 98.6006 349.95 98.5496 349.92 97.9366V97.9386Z" fill="white"/>
<path fill-rule="evenodd" clip-rule="evenodd" d="M397.44 121.461C393.817 122.796 390.552 126.574 385.44 127.221C372.851 128.815 362.584 120.388 362.4 108.021C365.013 136.782 411.682 127.093 399.36 97.9416C402.054 98.6066 404.156 99.8656 406.56 100.822C412.952 136.707 359.132 142.264 357.6 108.502C358.578 128.203 386.46 137.773 398.88 122.902C396.545 123.069 391.341 129.34 388.319 127.221C392.399 126.331 395.389 124.371 397.439 121.461H397.44ZM399.84 117.621C401.512 117.513 402.863 114.593 401.76 113.301C400.86 114.471 400.13 115.831 399.84 117.621ZM402.24 119.061C402.679 117.404 405.192 115.315 403.68 113.301C403.81 115.531 400.99 117.301 402.24 119.061Z" fill="white"/>
<path fill-rule="evenodd" clip-rule="evenodd" d="M362.88 102.261C363.343 102.601 362.566 105.759 362.88 107.541C360.9 106.841 362.31 103.361 362.88 102.261Z" fill="white"/>
<path fill-rule="evenodd" clip-rule="evenodd" d="M361.92 115.701C364.196 119.504 366.89 122.89 370.56 125.301C367.15 124.551 363.21 120.171 361.92 115.701Z" fill="white"/>
<path fill-rule="evenodd" clip-rule="evenodd" d="M373.44 127.221C374.223 126.226 376.309 127.746 378.24 128.181C377.34 129.051 374.69 127.601 373.44 127.221Z" fill="white"/>
<path fill-rule="evenodd" clip-rule="evenodd" d="M407.52 12.9786C408.544 13.2036 408.434 12.2926 408.48 11.5386C412.964 14.0996 416.946 18.3506 420.48 23.0586C423.363 26.8986 428.139 32.2276 429.121 37.4586C429.396 38.9276 428.611 40.7266 428.641 42.2586C428.988 60.6776 429.034 88.0206 429.601 107.539C429.624 108.345 428.563 111.162 427.681 112.819C425.624 85.5836 428.591 61.1076 426.241 33.1386C424.854 46.2656 425.762 64.6116 425.762 83.5386C425.762 94.5546 426.929 105.654 426.241 113.779C426.098 115.47 425.071 117.151 424.321 118.579C422.187 93.0086 425.325 55.5016 422.401 27.3786C421.069 37.4286 422.593 50.9876 422.401 61.9386C417.403 54.1546 420.963 33.8046 419.042 22.5786C417.928 33.0806 417.721 42.6766 419.042 55.6986C417.119 55.7006 417.45 53.4496 416.161 52.8186C416.042 41.7006 416.04 31.4566 415.202 18.7386C414.276 26.7876 414.538 41.7406 415.202 51.3786C410.841 50.0416 412.321 43.8476 412.321 39.3786C412.321 30.7746 411.954 23.6036 411.842 14.4186C409.856 27.7106 411.375 36.6646 411.362 48.4986C407.177 48.1886 409.026 45.1926 408.963 42.2586C408.85 37.0136 408.359 31.2376 408.963 24.9786C406.482 26.5206 408.574 29.6876 408.003 33.1386C397.41 1.00461 347.172 13.0626 354.242 47.5386C346.942 50.9586 342.776 57.5116 339.843 65.2986C338.923 62.7256 340.18 58.1716 339.363 55.2186C337.504 73.5906 338.863 95.1246 338.884 115.699C338.016 114.508 336.714 112.913 336.484 111.379C335.558 105.204 336.288 96.5446 336.484 90.2586C336.84 78.8866 336.741 71.3006 336.484 59.5386C334.207 73.7066 336.186 92.4286 335.524 108.018C329.912 96.9876 335.404 73.9536 332.165 61.9376C331.234 75.6266 331.747 88.1486 332.165 98.8976C327.873 95.5846 330.323 87.4736 330.245 81.6176C330.181 76.8196 329.32 72.1036 329.765 65.7776C327.388 65.1596 330.222 69.7546 327.845 69.1376C327.519 64.0246 322.863 63.2406 317.765 62.8976C332.191 54.7326 332.635 35.2716 342.245 22.0976C354.565 5.20061 386.625 -5.68839 408.005 10.5756C408.205 11.7316 407.125 11.6186 407.525 12.9756L407.52 12.9786ZM383.52 7.21861C383.273 5.86561 384.377 3.16161 382.081 3.85861C382.501 5.04261 381.961 7.18161 383.521 7.21861H383.52ZM385.44 7.69861C387.478 7.59461 386.819 5.19361 385.92 4.33861C385.26 4.95761 385.44 6.42361 385.44 7.69861ZM389.76 8.65861C390.825 8.45961 390.221 6.02661 389.28 6.25861C388.91 6.58661 388.03 9.11761 389.76 8.65861ZM399.84 11.5386C400.747 11.6466 400.899 10.9976 401.76 11.0586C401.89 9.16861 401.575 7.72361 400.32 7.21861C399.21 8.56761 400.94 9.97861 399.84 11.5386ZM398.4 11.0586C398.393 9.78661 398.667 8.23261 397.44 8.17861C397.76 9.96961 396.11 10.9946 398.4 11.0586ZM383.04 11.5386C383.433 11.1906 384.327 8.21661 382.56 8.65861C382.98 10.3556 381.33 11.1306 383.04 11.5386ZM386.4 12.0186C386.953 11.4516 386.944 10.3216 386.88 9.13861H385.44C385.34 10.5176 385.56 11.5766 386.4 12.0186ZM405.12 24.4986C404.6 19.5776 406.23 12.5076 404.159 9.13861C404.389 12.5766 403.119 20.3426 405.119 24.4986H405.12ZM360.96 13.9386C360.528 12.6096 361.946 9.43261 360 9.61861C360.43 10.9466 359.01 14.1246 360.96 13.9386ZM356.64 14.4176C358.609 14.0836 358.02 11.1646 356.64 10.5776V14.4176ZM363.84 13.4586C363.596 12.2626 363.856 10.5626 362.4 10.5786C362.38 12.0376 362.12 13.7376 363.84 13.4586ZM354.24 19.2186C354.019 17.8266 355.551 14.9816 353.281 14.8986C353.491 16.4516 352.651 19.0496 354.241 19.2186H354.24ZM400.32 20.6586C401.867 19.7256 403.134 16.0816 400.32 15.8586V20.6586ZM360 18.7386C362.024 19.1146 361.639 16.1636 360 16.3386C360.28 17.8696 359.1 17.8226 360 18.7386ZM357.6 22.5786C357.098 20.8416 358.689 17.0096 356.64 16.8186C357.14 18.5556 355.55 22.3876 357.6 22.5786ZM350.88 22.0986C351.273 21.7506 352.167 18.7766 350.4 19.2186C350.19 20.2856 349.3 21.8206 350.88 22.0986ZM353.28 24.4986C355.23 24.6536 354.747 21.0006 353.28 20.6586V24.4986ZM343.2 44.6586C343.57 43.3856 344.196 41.1166 342.24 40.3386C342.45 41.8916 341.61 44.4896 343.2 44.6586ZM345.6 44.6586H346.56V40.8186H345.6V44.6586ZM339.36 51.3776C339.351 49.5846 340.9 45.3306 338.4 44.6576C338.79 46.8266 337.47 50.7036 339.36 51.3776ZM343.68 48.4986C343.75 47.3086 343.77 46.1696 342.72 46.0986C342.41 47.2676 341.75 48.5676 343.68 48.4986ZM336 52.3376C336.119 51.0496 337.433 47.9876 335.52 47.0576C335.79 49.2496 334.12 51.2406 336 52.3376ZM343.2 53.2986C344.302 52.9216 343.667 50.3266 342.24 50.8986C342.45 51.8056 341.59 53.7916 343.2 53.2986ZM332.16 58.5786C332.597 57.9016 333.524 53.6606 331.68 53.7786C331.98 55.2376 331.06 57.9126 332.16 58.5786ZM336 59.0586C336.408 58.6576 337.314 55.3076 335.52 55.6986C335.04 56.9746 335.02 58.1426 336 59.0586Z" fill="white"/>
<path fill-rule="evenodd" clip-rule="evenodd" d="M143.04 54.2586C144.845 55.4256 141.615 58.6436 144 59.0586C145.146 58.1886 144.271 55.3006 144 54.2586C147.774 56.2986 144.918 62.0006 145.92 66.7386C144.204 66.1276 144.656 65.1726 144.96 63.3786C142.101 66.1246 145.24 75.4176 143.52 79.2186C141.391 76.0416 143.39 67.9176 142.08 65.2986C140.97 67.0686 141.913 70.8906 141.6 73.4586C139.528 72.9026 141.607 66.3666 140.16 63.8586C138.47 69.4086 140.21 72.9136 139.2 79.6986C137.637 75.4346 138.778 71.8756 138.24 64.8186C136.101 68.1316 137.919 76.8276 136.8 79.6986C135.502 75.2366 136.428 68.5506 135.36 63.8586C134.244 67.3826 135.197 72.9756 134.88 77.2986C132.877 74.8216 134.462 68.7576 133.44 65.2986C132.552 65.3706 133.145 66.9236 132.48 67.2186C131.121 67.2976 132.879 64.2596 131.52 64.3386C131.954 62.7326 132.594 63.9196 133.44 64.3386C134.101 63.7206 133.915 62.2536 133.92 60.9786C135.841 62.1346 136.068 60.7556 135.84 58.5786C136.656 58.4026 136.745 58.9536 136.8 59.5386C138.173 59.4716 137.677 57.5366 137.76 56.1786C139.45 55.4646 141.55 55.1656 143.04 54.2586ZM142.08 58.0986V56.1786C140.23 55.7996 140.23 58.4766 142.08 58.0986Z" fill="white"/>
<path fill-rule="evenodd" clip-rule="evenodd" d="M289.92 61.4586C289.113 59.4276 280.982 60.9266 279.84 59.5386C295.021 58.3996 315.681 62.7396 324.48 55.2186C315.75 66.9646 290.688 62.6566 270.72 62.4186C252.555 62.2016 226.511 62.6766 204.48 62.4186C216.426 60.1326 225.025 61.7376 235.2 61.4586C226.673 59.0476 218.18 61.3526 209.28 60.0186C230.346 58.8916 248.118 59.9556 269.28 59.5386C265.291 61.6786 254.668 59.4876 248.639 60.9786C260.369 61.7446 275.829 61.2616 289.919 61.4586H289.92ZM301.92 60.9786C299.264 60.7176 293.749 61.1346 291.36 60.4986C293.85 62.1386 300.24 62.4576 301.92 60.9786Z" fill="white"/>
<path fill-rule="evenodd" clip-rule="evenodd" d="M119.04 61.9386C121.86 64.6016 119.792 71.9806 120.48 77.7786C101.251 77.6546 86.1281 78.5496 65.7601 78.7386C44.5201 78.9356 24.0931 79.0206 8.64006 78.7386C39.4831 75.6006 81.2861 79.3606 120 75.3776C88.8921 75.0236 41.7221 76.3606 8.64006 76.3376C8.95006 72.9886 8.46806 69.2596 8.64006 64.8176C29.5981 64.9126 41.7671 64.3376 64.3201 64.3376C84.9131 64.3376 102.887 64.6086 120 62.8976C119.18 63.0746 119.09 62.5236 119.04 61.9386ZM11.0401 74.4176C49.2621 74.0376 80.6671 73.9146 117.12 72.0176C86.0121 72.4916 41.8791 71.8406 11.0401 74.4176Z" fill="white"/>
<path fill-rule="evenodd" clip-rule="evenodd" d="M404.16 122.901C404.132 127.017 406.722 137.729 402.721 138.26C402.842 134.706 402.655 130.098 403.201 126.74C399.571 127.387 401.73 135.278 401.761 139.219C400.356 139.094 400.286 140.304 398.881 140.179C398.862 136.275 398.837 132.926 398.401 130.579C396.336 132.353 397.956 137.813 397.441 141.139C396.085 140.743 396.198 141.816 395.042 141.619C395.297 137.685 395.98 135.061 394.562 132.018C392.508 134.979 394.178 138.687 394.083 142.098C392.614 141.75 392.671 142.926 391.203 142.578C391.006 138.676 391.702 136.605 391.203 133.458C387.893 135.66 391.469 139.855 389.763 143.058H387.363C387.116 140.265 387.903 136.439 386.884 134.418C384.019 136.583 388.749 141.955 384.964 143.538C382.009 142.813 384.198 136.943 383.524 133.937C393.204 133.057 399.664 128.957 404.164 122.897L404.16 122.901Z" fill="white"/>
<path fill-rule="evenodd" clip-rule="evenodd" d="M91.2001 88.3376C91.3841 109.665 91.6271 134.819 91.6801 156.018C87.5371 155.666 89.2801 148.304 89.2801 144.498C89.2801 123.408 88.7291 105.505 88.3201 89.2976C85.7661 108.714 89.0371 136.855 87.8401 156.018C83.9021 153.515 87.5391 146.745 85.4401 142.098C84.3001 146.138 84.6151 151.207 85.4401 155.538C83.4691 156.541 81.0651 156.517 79.2001 155.538C79.4741 148.704 80.5151 140.074 78.2401 135.858C76.4791 143.233 79.3551 152.193 77.2801 156.498C75.0301 155.643 75.7441 152.176 75.8401 150.258C76.1301 144.483 76.7601 138.196 75.3601 131.058C72.7301 138.53 75.7051 149.047 74.4001 156.018C72.1461 154.496 73.0051 150.318 72.9601 147.378C72.8741 141.825 72.8311 135.937 72.4801 129.618C69.7111 133.073 71.2801 140.925 71.5201 146.418C71.6741 149.959 72.1571 154.977 71.0401 156.018C69.1841 156.708 69.6261 151.958 69.6001 150.739C69.4391 143.216 70.1721 132.755 69.1201 127.218C66.1581 137.376 70.1321 145.174 68.1601 156.498C64.5241 154.51 67.3131 149.81 66.2401 144.018C63.3301 148.125 66.1511 152.161 64.3201 156.498C61.3461 154.361 64.9961 145.322 62.4001 142.578C60.5561 146.768 61.8521 153.055 61.4401 156.498C58.6161 155.152 60.2111 149.441 60.0001 145.458C59.8971 143.522 59.1501 141.98 59.5201 140.178C56.2721 142.662 59.9511 152.798 57.6001 156.498C55.4651 153.116 58.2651 144.096 56.1601 138.738C53.3391 142.676 57.1441 152.076 54.7201 156.498C51.3301 152.684 55.1681 142.917 52.8001 137.298C50.5121 141.698 53.7961 151.463 51.3601 156.498C49.0091 150.665 51.3711 141.69 49.4401 136.338C47.9721 142.41 49.8781 152.3 48.9601 156.498C45.6311 156.216 47.0401 149.058 47.0401 145.458C47.0401 141.022 46.8821 136.57 47.0401 133.937C44.4451 134.659 46.0681 137.778 46.0801 139.698C46.1131 144.981 46.3881 151.832 45.1201 156.498C42.3101 156.908 44.2541 152.563 43.6801 150.738C41.2991 150.757 43.8651 155.722 42.2401 156.498C39.6251 154.929 42.2861 151.604 40.3201 149.778C38.9791 151.941 41.2231 155.026 39.8401 156.498C36.1281 156.122 39.4281 151.083 37.4401 148.338C35.9261 150.2 37.8801 155.231 36.9601 156.498C33.2271 156.138 37.1091 148.694 34.5601 146.898C33.6691 149.081 35.1161 153.052 34.5601 156.498C31.3871 152.523 33.6361 146.944 33.6001 142.098C33.4481 121.763 31.7961 103.387 33.6001 88.8186C34.1581 89.7006 36.7321 88.5656 36.0001 90.7386C37.9781 91.1166 36.9021 88.4396 38.8801 88.8186C40.1511 90.4476 38.6181 93.3306 39.3601 94.5786C41.7231 94.5416 38.8431 89.2626 41.2801 89.2986C43.4001 90.0596 41.6881 94.6516 42.2401 96.9796C45.3231 96.2496 41.8031 91.5296 44.1601 88.8196C47.0731 89.9066 44.9571 96.0216 45.6001 99.3796C48.0511 97.8306 45.3881 91.1676 47.0401 88.8196C50.3061 90.7396 47.3491 100.675 48.9601 102.74C50.8651 98.9636 48.5081 93.5706 50.4001 89.2996C52.4921 89.3676 51.2611 92.2796 51.3601 93.6196C51.6711 97.8116 51.9461 103.081 52.3201 106.58C55.0031 102.486 50.9881 93.4236 53.7601 88.8196C55.6191 94.1606 54.6741 102.306 55.2001 108.98C57.9111 103.55 54.9431 93.4456 56.6401 88.8196C59.6611 90.1106 57.6151 94.1346 57.6001 96.0186C57.5551 101.831 58.7541 107.351 58.5601 112.82C60.7351 109.263 58.9981 102.53 60.0001 98.8996C62.4261 103.04 60.2911 110.782 61.9201 114.74C62.5351 110.051 63.1491 104.123 62.8801 98.8996C62.6851 95.1186 60.5751 90.7686 63.3601 88.8196C66.2681 90.2756 63.8991 93.7176 63.8401 96.4996C63.7111 102.626 65.7011 109.959 64.8001 117.14C68.2371 111.109 64.3061 96.2966 66.7201 88.8206C69.0561 89.1486 67.6601 91.7316 67.6801 93.1396C67.8081 102.038 68.0651 113.426 68.1601 121.94C70.5991 120.088 68.8071 115.577 69.1201 111.861C69.6741 105.279 69.2001 94.7186 69.6001 88.8206C72.7411 88.8156 70.5981 99.0536 70.5601 102.26C70.4751 109.464 71.9251 117.088 71.5201 123.861C73.6941 121.66 72.3081 117.081 72.4801 113.3C72.8251 105.694 72.5921 96.4036 72.4801 88.8206C75.7221 88.5086 74.3211 92.7776 74.4001 94.0996C75.2001 107.467 73.8151 119.313 74.8801 129.621C77.9571 126.982 75.9611 122.462 75.8401 119.06C75.6291 113.11 75.9221 106.677 75.8401 98.9006C75.8031 95.3666 74.7651 91.0746 76.8001 88.8206C79.1011 99.3586 75.9761 118.506 78.7201 131.06C80.6121 116.384 78.1531 103.536 79.2001 88.8206C81.8931 89.7886 80.6101 93.6696 80.6401 95.5406C80.8591 109.273 80.1731 120.397 81.6001 135.381C84.0601 121.72 80.5731 106.407 82.5601 88.8206C85.2681 89.1326 83.9501 92.8126 84.0001 94.5806C84.3071 105.518 83.6631 126.054 84.9601 140.181C86.4181 124.424 85.8691 108.847 84.9601 88.8216C88.0971 88.6526 88.9061 88.9026 91.2001 88.3376ZM39.8401 114.741C40.2331 114.392 41.1281 111.419 39.3601 111.861C39.6361 112.701 38.7801 114.681 39.8401 114.741ZM42.2401 116.181C43.7551 116.799 43.7551 112.203 42.2401 112.822V116.182V116.181ZM45.6001 120.021C47.2981 119.944 46.9531 114.405 45.6001 114.261V120.021ZM49.4401 126.741C49.9671 123.877 50.7831 116.828 48.9601 114.741C47.9961 118.851 48.7731 122.441 49.4401 126.741ZM51.8401 127.701C53.9861 126.967 53.0401 118.224 51.8401 116.18V127.7V127.701ZM55.2001 132.021C57.8321 127.709 55.7741 122.981 56.1601 116.662H54.7201C55.7451 120.912 54.9491 126.992 55.2001 132.022V132.021ZM59.5201 134.901C59.0681 128.924 60.3451 122.934 58.0801 119.06C58.8501 124.05 56.4271 132.23 59.5201 134.9V134.901ZM62.8801 138.741C62.3001 133.56 64.0771 126.023 61.9201 122.421C61.6671 126.561 59.9851 136.151 62.8801 138.741ZM66.2401 139.701C65.4421 135.379 67.9341 127.766 64.8001 125.781C65.5981 130.101 63.1061 137.711 66.2401 139.701ZM36.4801 138.741C38.6041 138.794 37.8901 134.455 36.4801 133.94V138.74V138.741ZM39.8401 141.141C40.4501 140.18 40.9631 136.11 39.3601 135.862C38.8471 136.722 39.2171 139.912 39.8401 141.142V141.141ZM43.2001 145.461C43.9511 143.13 44.1901 137.534 42.7201 135.861C42.7771 137.381 42.2641 143.251 43.2001 145.461ZM82.0801 155.061C82.4381 150.707 83.5061 143.469 81.6001 139.221C80.4261 144.971 80.4571 151.501 82.0801 155.061Z" fill="white"/>
</svg>
