<svg width="244" height="245" viewBox="0 0 244 245" fill="none" xmlns="http://www.w3.org/2000/svg">
<g filter="url(#filter0_f_12_10)">
<path d="M242.465 122.358C242.465 189.019 188.521 243.056 121.976 243.056C55.4313 243.056 1.48666 189.019 1.48666 122.358C1.48666 55.6983 55.4313 1.66089 121.976 1.66089C188.521 1.66089 242.465 55.6983 242.465 122.358Z" fill="black"/>
</g>
<path d="M241.984 122.356C241.984 188.737 188.263 242.547 121.994 242.547C55.725 242.547 2.0038 188.737 2.0038 122.356C2.0038 55.9752 55.725 2.16437 121.994 2.16437C188.263 2.16437 241.984 55.9752 241.984 122.356Z" fill="url(#paint0_radial_12_10)"/>
<path d="M216.975 121.474C216.975 175.331 173.808 218.989 120.559 218.989C67.3093 218.989 24.1425 175.331 24.1425 121.474C24.1425 67.6173 67.3093 23.9589 120.559 23.9589C173.808 23.9589 216.975 67.6173 216.975 121.474Z" fill="#B7BFCC"/>
<path d="M187.77 58.8349C221.878 94.3561 219.628 151.746 182.742 187.018C145.856 222.29 88.3043 222.087 54.1954 186.565C20.0866 151.043 22.3379 93.6544 59.2236 58.3824C96.1093 23.1105 153.661 23.313 187.77 58.8349Z" fill="black" stroke="#9CACBE" stroke-opacity="0.38119" stroke-width="0.3" stroke-linecap="round" stroke-linejoin="round"/>
<path d="M170.794 194.993C131.402 222.193 77.004 211.71 49.2937 171.579C21.5834 131.448 31.0534 76.8654 70.446 49.6653C109.839 22.4652 164.236 32.9482 191.946 73.0795C219.656 113.211 210.186 167.793 170.794 194.993Z" fill="#DDE1E7" stroke="#9CACBE" stroke-opacity="0.38119" stroke-width="0.3" stroke-linecap="round" stroke-linejoin="round"/>
<path d="M211.402 122.317C211.402 175.711 169.55 218.996 117.924 218.996C66.2971 218.996 24.4452 175.711 24.4452 122.317C24.4452 68.9224 66.2971 25.6375 117.924 25.6375C169.55 25.6375 211.402 68.9224 211.402 122.317V122.317Z" stroke="#0D1014" stroke-width="2" stroke-linecap="round" stroke-linejoin="round"/>
<g filter="url(#filter1_f_12_10)">
<path d="M200.764 122.605C200.764 167.048 164.971 203.078 120.817 203.078C76.6624 203.078 40.8687 167.048 40.8687 122.605C40.8687 78.1609 76.6624 42.1313 120.817 42.1313C164.971 42.1313 200.764 78.1609 200.764 122.605Z" stroke="#0D1014" stroke-width="0.48721"/>
</g>
<path d="M200.201 122.608C200.201 166.74 164.658 202.517 120.814 202.517C76.97 202.517 41.4276 166.74 41.4276 122.608C41.4276 78.4759 76.97 42.6991 120.814 42.6991C164.658 42.6991 200.201 78.4759 200.201 122.608Z" fill="#95A7AE" fill-opacity="0.42079"/>
<path d="M186.749 122.609C186.749 159.264 157.228 188.98 120.813 188.98C84.3971 188.98 54.8767 159.264 54.8767 122.609C54.8767 85.9546 84.3971 56.2393 120.813 56.2393C157.228 56.2393 186.749 85.9546 186.749 122.609Z" stroke="#768DA5" stroke-opacity="0.38119" stroke-width="0.48941"/>
<path d="M183.65 122.609C183.65 157.541 155.516 185.861 120.812 185.861C86.1072 185.861 57.9737 157.541 57.9737 122.609C57.9737 87.6758 86.1072 59.3566 120.812 59.3566C155.516 59.3566 183.65 87.6758 183.65 122.609Z" stroke="#768DA5" stroke-opacity="0.38119" stroke-width="0.51353"/>
<path d="M174.374 122.608C174.374 152.374 150.401 176.505 120.829 176.505C91.2566 176.505 67.2837 152.374 67.2837 122.608C67.2837 92.8419 91.2566 68.711 120.829 68.711C150.401 68.711 174.374 92.8419 174.374 122.608Z" stroke="#768DA5" stroke-opacity="0.38119" stroke-width="0.60266"/>
<path d="M164.043 122.604C164.043 146.639 144.686 166.124 120.808 166.124C96.9298 166.124 77.5728 146.639 77.5728 122.604C77.5728 98.5687 96.9298 79.0839 120.808 79.0839C144.686 79.0839 164.043 98.5687 164.043 122.604Z" stroke="#768DA5" stroke-opacity="0.38119" stroke-width="0.74636"/>
<path d="M153.741 122.6C153.741 140.904 139 155.742 120.815 155.742C102.631 155.742 87.8892 140.904 87.8892 122.6C87.8892 104.296 102.631 89.4568 120.815 89.4568C139 89.4568 153.741 104.296 153.741 122.6Z" stroke="#768DA5" stroke-opacity="0.38119" stroke-width="0.98005"/>
<path d="M185.113 122.607C185.113 158.352 156.325 187.33 120.813 187.33C85.3019 187.33 56.5143 158.352 56.5143 122.607C56.5143 86.8624 85.3019 57.8848 120.813 57.8848C156.325 57.8848 185.113 86.8624 185.113 122.607Z" stroke="#768DA5" stroke-opacity="0.38119" stroke-width="0.25093"/>
<path d="M182.098 122.606C182.098 156.671 154.662 184.287 120.819 184.287C86.9756 184.287 59.5403 156.671 59.5403 122.606C59.5403 88.5405 86.9756 60.9244 120.819 60.9244C154.662 60.9244 182.098 88.5405 182.098 122.606Z" stroke="#768DA5" stroke-opacity="0.38119" stroke-width="0.2633"/>
<path d="M173.038 122.605C173.038 151.632 149.661 175.164 120.823 175.164C91.9849 175.164 68.6073 151.632 68.6073 122.605C68.6073 93.5774 91.9849 70.0456 120.823 70.0456C149.661 70.0456 173.038 93.5774 173.038 122.605Z" stroke="#768DA5" stroke-opacity="0.38119" stroke-width="0.309"/>
<path d="M162.978 122.615C162.978 146.054 144.102 165.055 120.816 165.055C97.53 165.055 78.6534 146.054 78.6534 122.615C78.6534 99.1762 97.53 80.175 120.816 80.175C144.102 80.175 162.978 99.1762 162.978 122.615Z" stroke="#768DA5" stroke-opacity="0.38119" stroke-width="0.38268"/>
<path d="M152.931 122.597C152.931 140.446 138.555 154.916 120.822 154.916C103.089 154.916 88.7135 140.446 88.7135 122.597C88.7135 104.747 103.089 90.277 120.822 90.277C138.555 90.277 152.931 104.747 152.931 122.597Z" stroke="#768DA5" stroke-opacity="0.38119" stroke-width="0.5025"/>
<path d="M196.043 122.605C196.043 164.425 162.361 198.329 120.813 198.329C79.2649 198.329 45.5837 164.425 45.5837 122.605C45.5837 80.7836 79.2649 46.8803 120.813 46.8803C162.361 46.8803 196.043 80.7836 196.043 122.605Z" stroke="#9CACBE" stroke-opacity="0.38119" stroke-width="0.42895"/>
<path d="M177.452 122.611C177.452 154.1 152.093 179.627 120.81 179.627C89.5273 179.627 64.1677 154.1 64.1677 122.611C64.1677 91.1227 89.5273 65.5957 120.81 65.5957C152.093 65.5957 177.452 91.1227 177.452 122.611Z" stroke="#9CACBE" stroke-opacity="0.38119" stroke-width="0.5697"/>
<path d="M172.296 122.613C172.296 151.231 149.248 174.431 120.816 174.431C92.3843 174.431 69.3359 151.231 69.3359 122.613C69.3359 93.9949 92.3843 70.7948 120.816 70.7948C149.248 70.7948 172.296 93.9949 172.296 122.613Z" stroke="#9CACBE" stroke-opacity="0.38119" stroke-width="0.62684"/>
<path d="M168.179 122.615C168.179 148.946 146.973 170.292 120.813 170.292C94.6539 170.292 73.4476 148.946 73.4476 122.615C73.4476 96.2833 94.6539 74.937 120.813 74.937C146.973 74.937 168.179 96.2833 168.179 122.615Z" stroke="#9CACBE" stroke-opacity="0.38119" stroke-width="0.68128"/>
<path d="M155.799 122.595C155.799 142.047 140.133 157.816 120.808 157.816C101.482 157.816 85.8163 142.047 85.8163 122.595C85.8163 103.142 101.482 87.373 120.808 87.373C140.133 87.373 155.799 103.142 155.799 122.595Z" stroke="#9CACBE" stroke-opacity="0.38119" stroke-width="0.92221"/>
<path d="M152.188 122.608C152.188 140.051 138.14 154.192 120.811 154.192C103.482 154.192 89.4335 140.051 89.4335 122.608C89.4335 105.165 103.482 91.0248 120.811 91.0248C138.14 91.0248 152.188 105.165 152.188 122.608Z" stroke="#9CACBE" stroke-opacity="0.38119" stroke-width="1.0284"/>
<path d="M153.621 167.494C153.621 185.346 138.931 199.82 120.811 199.82C102.69 199.82 88.0004 185.347 88.0004 167.494C88.0004 149.641 102.69 135.168 120.811 135.168C138.931 135.168 153.621 149.641 153.621 167.494Z" stroke="#627C95" stroke-opacity="0.58416" stroke-width="0.21548"/>
<path d="M192.427 122.604C192.427 162.416 160.364 194.69 120.812 194.69C81.26 194.69 49.1969 162.416 49.1969 122.604C49.1969 82.7921 81.26 50.5176 120.812 50.5176C160.364 50.5176 192.427 82.7921 192.427 122.604Z" stroke="#627C95" stroke-opacity="0.58416" stroke-width="0.45059"/>
<path d="M181.068 122.608C181.068 156.105 154.09 183.261 120.811 183.261C87.5322 183.261 60.5546 156.105 60.5546 122.608C60.5546 89.11 87.5322 61.9542 120.811 61.9542C154.09 61.9542 181.068 89.11 181.068 122.608Z" stroke="#627C95" stroke-opacity="0.58416" stroke-width="0.53553"/>
<path d="M170.743 122.601C170.743 150.358 148.388 172.86 120.812 172.86C93.2352 172.86 70.8803 150.358 70.8803 122.601C70.8803 94.8442 93.2352 72.3421 120.812 72.3421C148.388 72.3421 170.743 94.8442 170.743 122.601Z" stroke="#627C95" stroke-opacity="0.58416" stroke-width="0.64628"/>
<path d="M166.122 122.599C166.122 147.782 145.84 168.198 120.821 168.198C95.8022 168.198 75.5206 147.782 75.5206 122.599C75.5206 97.4156 95.8022 77.0001 120.821 77.0001C145.84 77.0001 166.122 97.4156 166.122 122.599Z" stroke="#627C95" stroke-opacity="0.58416" stroke-width="0.71234"/>
<path d="M161.986 122.609C161.986 145.496 143.554 164.05 120.816 164.05C98.0781 164.05 79.6458 145.496 79.6458 122.609C79.6458 99.7217 98.0781 81.1677 120.816 81.1677C143.554 81.1677 161.986 99.7217 161.986 122.609Z" stroke="#627C95" stroke-opacity="0.58416" stroke-width="0.7838"/>
<path d="M158.383 122.602C158.383 143.48 141.568 160.405 120.826 160.405C100.084 160.405 83.2696 143.48 83.2696 122.602C83.2696 101.724 100.084 84.7988 120.826 84.7988C141.568 84.7988 158.383 101.724 158.383 122.602Z" stroke="#627C95" stroke-opacity="0.58416" stroke-width="0.85923"/>
<path d="M149.606 122.61C149.606 138.617 136.713 151.595 120.81 151.595C104.907 151.595 92.0143 138.617 92.0143 122.61C92.0143 106.602 104.907 93.6245 120.81 93.6245C136.713 93.6245 149.606 106.602 149.606 122.61Z" stroke="#627C95" stroke-opacity="0.58416" stroke-width="1.1206"/>
<path d="M146.519 122.607C146.519 136.892 135.014 148.473 120.822 148.473C106.629 148.473 95.1237 136.892 95.1237 122.607C95.1237 108.321 106.629 96.7397 120.822 96.7397C135.014 96.7397 146.519 108.321 146.519 122.607Z" stroke="#627C95" stroke-opacity="0.58416" stroke-width="1.2557"/>
<path d="M155.677 168.808C155.677 187.682 140.377 202.982 121.504 202.982C102.63 202.982 87.3301 187.682 87.3301 168.808C87.3301 149.935 102.63 134.635 121.504 134.635C140.377 134.635 155.677 149.934 155.677 168.808Z" fill="url(#paint1_radial_12_10)"/>
<path d="M151.743 167.672C151.743 185.391 137.893 199.756 120.808 199.756C103.722 199.756 89.8722 185.391 89.8722 167.672C89.8722 149.952 103.722 135.587 120.808 135.587C137.893 135.587 151.743 149.952 151.743 167.672Z" stroke="#768DA5" stroke-opacity="0.38119" stroke-width="0.77072"/>
<path d="M150.293 167.671C150.293 184.558 137.093 198.248 120.81 198.248C104.528 198.248 91.3281 184.558 91.3281 167.671C91.3281 150.784 104.528 137.094 120.81 137.094C137.093 137.094 150.293 150.784 150.293 167.671Z" stroke="#768DA5" stroke-opacity="0.38119" stroke-width="0.80872"/>
<path d="M145.934 167.67C145.934 182.06 134.687 193.726 120.812 193.726C106.938 193.726 95.6904 182.06 95.6904 167.67C95.6904 153.281 106.938 141.615 120.812 141.615C134.687 141.615 145.934 153.281 145.934 167.67Z" stroke="#768DA5" stroke-opacity="0.38119" stroke-width="0.94908"/>
<path d="M141.094 167.675C141.094 179.295 132.012 188.714 120.809 188.714C109.606 188.714 100.524 179.295 100.524 167.675C100.524 156.056 109.606 146.637 120.809 146.637C132.012 146.637 141.094 156.056 141.094 167.675Z" stroke="#768DA5" stroke-opacity="0.38119" stroke-width="1.1754"/>
<path d="M136.26 167.666C136.26 176.515 129.344 183.688 120.812 183.688C112.28 183.688 105.364 176.515 105.364 167.666C105.364 158.818 112.28 151.644 120.812 151.644C129.344 151.644 136.26 158.818 136.26 167.666Z" stroke="#768DA5" stroke-opacity="0.38119" stroke-width="1.5434"/>
<path d="M152.378 169.743C152.378 188.096 138.247 202.975 120.817 202.975C103.386 202.975 89.2558 188.096 89.2558 169.743C89.2558 151.39 103.386 136.511 120.817 136.511C138.247 136.511 152.378 151.39 152.378 169.743Z" stroke="#627C95" stroke-opacity="0.58416" stroke-width="0.74976"/>
<path d="M147.371 169.744C147.371 185.187 135.482 197.706 120.816 197.706C106.15 197.706 94.2611 185.187 94.2611 169.744C94.2611 154.302 106.15 141.783 120.816 141.783C135.482 141.783 147.371 154.302 147.371 169.744Z" stroke="#627C95" stroke-opacity="0.58416" stroke-width="0.8911"/>
<path d="M142.821 169.741C142.821 182.538 132.969 192.911 120.816 192.911C108.663 192.911 98.8117 182.538 98.8117 169.741C98.8117 156.945 108.663 146.572 120.816 146.572C132.969 146.572 142.821 156.945 142.821 169.741Z" stroke="#627C95" stroke-opacity="0.58416" stroke-width="1.0754"/>
<path d="M140.785 169.74C140.785 181.35 131.846 190.761 120.821 190.761C109.795 190.761 100.857 181.35 100.857 169.74C100.857 158.131 109.795 148.719 120.821 148.719C131.846 148.719 140.785 158.131 140.785 169.74Z" stroke="#627C95" stroke-opacity="0.58416" stroke-width="1.1853"/>
<path d="M138.962 169.745C138.962 180.296 130.839 188.849 120.818 188.849C110.798 188.849 102.675 180.296 102.675 169.745C102.675 159.194 110.798 150.641 120.818 150.641C130.839 150.641 138.962 159.194 138.962 169.745Z" stroke="#627C95" stroke-opacity="0.58416" stroke-width="1.3042"/>
<path d="M137.374 169.742C137.374 179.367 129.964 187.169 120.823 187.169C111.682 187.169 104.272 179.367 104.272 169.742C104.272 160.117 111.682 152.315 120.823 152.315C129.964 152.315 137.374 160.117 137.374 169.742Z" stroke="#627C95" stroke-opacity="0.58416" stroke-width="1.4297"/>
<path d="M133.506 169.745C133.506 177.125 127.824 183.107 120.816 183.107C113.807 183.107 108.125 177.125 108.125 169.745C108.125 162.366 113.807 156.383 120.816 156.383C127.824 156.383 133.506 162.366 133.506 169.745Z" stroke="#627C95" stroke-opacity="0.58416" stroke-width="1.8647"/>
<path d="M132.146 169.744C132.146 176.33 127.075 181.669 120.821 181.669C114.566 181.669 109.496 176.33 109.496 169.744C109.496 163.158 114.566 157.819 120.821 157.819C127.075 157.819 132.146 163.158 132.146 169.744Z" stroke="#627C95" stroke-opacity="0.58416" stroke-width="2.0894"/>
<path d="M155.734 169.876C155.216 177.226 153.523 183.754 148.244 189.754L122.633 167.656L155.734 169.876Z" fill="url(#paint2_radial_12_10)"/>
<path d="M148.195 189.8C136.454 203.228 124.251 206.966 101.877 196.783L122.475 167.382L148.195 189.8Z" fill="url(#paint3_radial_12_10)"/>
<g filter="url(#filter2_f_12_10)">
<path d="M138.088 167.867C138.088 176.422 131.152 183.357 122.597 183.357C114.042 183.357 107.107 176.422 107.107 167.867C107.107 159.311 114.042 152.376 122.597 152.376C131.153 152.376 138.088 159.311 138.088 167.867Z" fill="url(#paint4_radial_12_10)"/>
</g>
<path d="M52.9443 81.1579C62.9607 64.5359 78.654 52.1591 97.0845 46.3476L120.82 122.6L52.9443 81.1579Z" fill="#E8E8E8" fill-opacity="0.24257"/>
<path d="M152.782 49.4548C171.694 57.8311 186.616 73.2993 194.379 92.5714L120.81 122.594L152.782 49.4548Z" fill="#666666" fill-opacity="0.10891"/>
<g filter="url(#filter3_f_12_10)">
<path d="M110.687 98.2362C110.659 98.2493 110.636 98.2722 110.623 98.3008L106.221 114.87C106.216 114.891 106.216 114.913 106.221 114.934C105.614 121.135 106.131 126.265 108.163 130.079C110.179 133.863 113.708 136.341 118.972 137.134L118.648 147.101C118.575 148.496 118.595 149.533 118.584 150.272C118.571 151.012 118.524 151.436 118.325 151.696C118.126 151.957 117.754 152.079 117.03 152.149C116.306 152.219 115.251 152.235 113.729 152.279C112.21 152.322 111.019 152.329 110.04 152.537C109.061 152.746 108.261 153.156 107.71 153.961C106.609 155.572 106.31 158.707 106.157 165.029V204.508C106.152 204.529 106.152 204.552 106.157 204.573C106.17 204.601 106.193 204.624 106.222 204.637C106.243 204.643 106.265 204.643 106.286 204.637C106.307 204.643 106.33 204.643 106.351 204.637C106.379 204.624 106.402 204.601 106.415 204.573C108.298 202.428 109.843 200.063 112.111 198.295C114.379 196.527 117.343 195.363 122.013 195.577C126.048 195.133 129.183 195.889 131.722 197.518C134.261 199.148 136.207 201.661 137.805 204.638C137.819 204.666 137.841 204.689 137.87 204.702C137.891 204.708 137.913 204.708 137.935 204.702C137.956 204.708 137.978 204.708 137.999 204.702C138.028 204.689 138.051 204.666 138.064 204.638C138.069 204.616 138.069 204.594 138.064 204.573V188.328C138.644 186.018 138.56 184.563 137.934 183.668C137.621 183.22 137.181 182.91 136.64 182.762C136.189 182.638 135.655 182.655 135.087 182.697C135.064 182.699 135.045 182.695 135.022 182.697C135.021 182.696 135.03 182.635 135.022 182.632C135.014 182.63 134.964 182.634 134.957 182.632C134.9 182.618 134.836 182.639 134.699 182.632C134.148 182.608 132.606 182.602 128.55 182.697C126.525 182.744 124.992 182.728 123.825 182.568C122.658 182.407 121.845 182.093 121.301 181.597C120.758 181.1 120.459 180.41 120.266 179.396C120.072 178.383 120.001 177.065 119.942 175.383C119.883 173.704 119.904 172.5 120.071 171.63C120.238 170.759 120.515 170.218 120.977 169.882C121.902 169.21 123.636 169.278 126.479 169.105C129.349 168.931 131.532 167.703 133.016 165.999C134.499 164.294 135.294 162.107 135.475 160.044V126.066C135.48 126.045 135.48 126.022 135.475 126.001C135.462 125.973 135.439 125.95 135.41 125.937C135.389 125.931 135.367 125.931 135.346 125.937H123.307C120.689 125.293 119.636 123.84 119.359 121.859C119.083 119.878 119.654 117.395 120.395 114.805C120.4 114.783 120.4 114.761 120.395 114.74L124.537 98.3654C124.543 98.3442 124.543 98.322 124.537 98.3008C124.524 98.2722 124.501 98.2492 124.473 98.2361C124.451 98.2307 124.429 98.2307 124.408 98.2361H110.752C110.73 98.2307 110.708 98.2307 110.687 98.2361L110.687 98.2362Z" stroke="white" stroke-opacity="0.34653" stroke-width="0.3"/>
</g>
<path d="M124.419 98.3398H110.756L106.318 114.906C105.105 127.277 108.463 135.459 119.071 136.994L118.793 147.099C118.501 152.661 119.788 152.222 113.708 152.397C107.628 152.571 106.59 152.363 106.284 164.999L106.031 201.738C113.064 199.739 113.233 200.212 122.013 199.98C130.794 199.747 131.913 199.387 137.901 201.072V188.302C139.053 183.714 137.515 182.489 134.734 182.816C134.734 182.816 136.65 182.627 128.54 182.816C120.429 183.006 120.056 182.124 119.82 175.392C119.585 168.659 120.773 169.293 126.448 168.95C132.122 168.606 134.982 164.131 135.339 160.058V126.061H123.309C117.996 124.756 118.798 119.957 120.283 114.767L124.419 98.3398Z" fill="black"/>
<path d="M217.063 122.317C217.063 175.711 173.941 218.996 120.748 218.996C67.5548 218.996 24.433 175.711 24.433 122.317C24.433 68.9224 67.5548 25.6375 120.748 25.6375C173.941 25.6375 217.063 68.9224 217.063 122.317V122.317Z" stroke="#0D1014" stroke-width="2" stroke-linecap="round" stroke-linejoin="round"/>
<path d="M108.65 24.56C171.268 19.3523 191.005 55.988 218.11 82.596C223.307 86.9898 225.17 86.4661 225.61 79.9175C225.254 64.2515 217.525 54.7305 211.86 43.4885C218.226 64.2195 215.653 75.5305 199.896 59.0245C160.111 21.0295 134.492 22.5975 108.646 24.5605L108.65 24.56Z" fill="black"/>
<path d="M35.78 39.2C24.972 59.758 28.3516 66.557 49.909 54.274C32.896 74.692 21.897 99.212 23.829 131.944C23.1486 112.481 23.104 109.965 14.193 109.218C4.5958 108.414 5.0008 111.432 2.24 126.648C1.91001 97.07 9.2488 67.449 35.781 39.2H35.78Z" fill="black"/>
<defs>
<filter id="filter0_f_12_10" x="1.23253" y="1.40675" width="241.487" height="241.903" filterUnits="userSpaceOnUse" color-interpolation-filters="sRGB">
<feFlood flood-opacity="0" result="BackgroundImageFix"/>
<feBlend mode="normal" in="SourceGraphic" in2="BackgroundImageFix" result="shape"/>
<feGaussianBlur stdDeviation="0.127069" result="effect1_foregroundBlur_12_10"/>
</filter>
<filter id="filter1_f_12_10" x="40.0553" y="41.3195" width="161.523" height="162.57" filterUnits="userSpaceOnUse" color-interpolation-filters="sRGB">
<feFlood flood-opacity="0" result="BackgroundImageFix"/>
<feBlend mode="normal" in="SourceGraphic" in2="BackgroundImageFix" result="shape"/>
<feGaussianBlur stdDeviation="0.15632" result="effect1_foregroundBlur_12_10"/>
</filter>
<filter id="filter2_f_12_10" x="105.611" y="150.88" width="33.9729" height="33.973" filterUnits="userSpaceOnUse" color-interpolation-filters="sRGB">
<feFlood flood-opacity="0" result="BackgroundImageFix"/>
<feBlend mode="normal" in="SourceGraphic" in2="BackgroundImageFix" result="shape"/>
<feGaussianBlur stdDeviation="0.747944" result="effect1_foregroundBlur_12_10"/>
</filter>
<filter id="filter3_f_12_10" x="105.504" y="97.7537" width="33.4293" height="107.431" filterUnits="userSpaceOnUse" color-interpolation-filters="sRGB">
<feFlood flood-opacity="0" result="BackgroundImageFix"/>
<feBlend mode="normal" in="SourceGraphic" in2="BackgroundImageFix" result="shape"/>
<feGaussianBlur stdDeviation="0.0838618" result="effect1_foregroundBlur_12_10"/>
</filter>
<radialGradient id="paint0_radial_12_10" cx="0" cy="0" r="1" gradientUnits="userSpaceOnUse" gradientTransform="translate(125.795 8.48575) rotate(90.4251) scale(150.72 148.768)">
<stop stop-color="white"/>
<stop offset="0.22974" stop-color="#ECEEF1"/>
<stop offset="1" stop-color="#A3AEBE"/>
</radialGradient>
<radialGradient id="paint1_radial_12_10" cx="0" cy="0" r="1" gradientUnits="userSpaceOnUse" gradientTransform="translate(122.454 168.95) rotate(90.8905) scale(35.6938 34.1737)">
<stop stop-color="#3B4A51"/>
<stop offset="1" stop-color="#ADB6C1"/>
</radialGradient>
<radialGradient id="paint2_radial_12_10" cx="0" cy="0" r="1" gradientUnits="userSpaceOnUse" gradientTransform="translate(154.172 180.529) rotate(-158.151) scale(73.3489 15.4444)">
<stop stop-color="#000508"/>
<stop offset="0.31068" stop-color="#000508"/>
<stop offset="1" stop-color="#000508" stop-opacity="0"/>
</radialGradient>
<radialGradient id="paint3_radial_12_10" cx="0" cy="0" r="1" gradientUnits="userSpaceOnUse" gradientTransform="translate(129.284 214.476) rotate(-104.11) scale(54.1324 22.8856)">
<stop stop-color="#D8E6EA"/>
<stop offset="0.58593" stop-color="#D8E6EA"/>
<stop offset="1" stop-color="#D8E6EA" stop-opacity="0"/>
</radialGradient>
<radialGradient id="paint4_radial_12_10" cx="0" cy="0" r="1" gradientUnits="userSpaceOnUse" gradientTransform="translate(123.038 167.951) rotate(90.8905) scale(16.1801 15.4907)">
<stop stop-color="#020202"/>
<stop offset="0.5" stop-color="#22262C" stop-opacity="0.89516"/>
<stop offset="1" stop-opacity="0.62097"/>
</radialGradient>
</defs>
</svg>
