<svg width="182" height="185" viewBox="0 0 182 185" fill="none" xmlns="http://www.w3.org/2000/svg">
<path d="M119.445 167.701H62.5533V173.433H119.445V167.701Z" fill="black"/>
<path d="M45.5121 92.5254V185H136.488V92.5254H45.5121ZM130.848 179.268H51.1516V173.434H56.8654V167.702H51.1516V98.2579H130.848V167.702H125.134V173.434H130.848V179.268H130.848Z" fill="black"/>
<path d="M71.0885 83.8509H65.3747V31.7803C65.3747 17.4175 76.8702 5.73247 91.0001 5.73247C105.13 5.73247 116.625 17.4175 116.625 31.7803V63.5858H122.265V31.7803C122.265 14.2566 108.24 0 91.0001 0C73.7605 0 59.7352 14.2566 59.7352 31.7803V83.8509H54.0214V89.5834H71.0888V83.8509H71.0885Z" fill="black"/>
<path d="M127.979 83.8506H110.91V89.5831H127.979V83.8506Z" fill="black"/>
<path d="M88.1805 138.377V150.328H93.82V138.377C98.7208 137.099 102.354 132.571 102.354 127.197C102.354 120.834 97.2606 115.656 91.0004 115.656C84.7403 115.656 79.6471 120.834 79.6471 127.197C79.6467 132.571 83.2796 137.099 88.1805 138.377ZM91.0001 121.389C94.1506 121.389 96.7139 123.995 96.7139 127.197C96.7139 130.399 94.1506 133.005 91.0001 133.005C87.8495 133.005 85.2863 130.4 85.2863 127.197C85.2863 123.995 87.8495 121.389 91.0001 121.389Z" fill="black"/>
</svg>
